<svg xmlns="http://www.w3.org/2000/svg" width="32.44" height="24.338" viewBox="0 0 32.44 24.338"><g transform="translate(-2234.374 730.409)"><g transform="translate(2234.374 -730.409)"><path d="M2250.68-726.346q-7.066,0-14.133,0a2.041,2.041,0,0,1-2.042-1.578,1.993,1.993,0,0,1,1.089-2.258,2.377,2.377,0,0,1,.962-.216q14.112-.017,28.225-.007a2.031,2.031,0,0,1,2.109,2.055,2.027,2.027,0,0,1-2.117,2Q2257.726-726.343,2250.68-726.346Z" transform="translate(-2234.449 730.41)" fill="#0f2154"/><path d="M2250.717-483.3q-7.025,0-14.051,0a2.038,2.038,0,0,1-2.16-2.126,2.031,2.031,0,0,1,1.931-1.936c.083-.005.167,0,.25,0q14.03,0,28.059,0a2.048,2.048,0,0,1,2.156,1.69,2.024,2.024,0,0,1-2.052,2.373c-1.876.011-3.752,0-5.628,0Z" transform="translate(-2234.492 507.631)" fill="#0f2154"/><path d="M2250.584-604.719q-7.046,0-14.091,0a2.025,2.025,0,0,1-1.967-2.777,2.017,2.017,0,0,1,1.932-1.265q4.42-.005,8.839,0,9.693,0,19.386,0a2.012,2.012,0,0,1,2.123,2.15,2,2,0,0,1-2.005,1.892c-1.056.011-2.113,0-3.168,0Z" transform="translate(-2234.374 618.909)" fill="#0f2154"/></g></g></svg>