<svg xmlns="http://www.w3.org/2000/svg" width="28.934" height="28.931" viewBox="0 0 28.934 28.931"><g transform="translate(-1166.634 357.364)"><g transform="translate(1166.634 -357.364)"><path d="M1184.551-260.709c-.36-.066-.723-.119-1.079-.2a11.013,11.013,0,0,1-2.9-1.3,32.253,32.253,0,0,1-13.251-14.066,6.625,6.625,0,0,1,1.173-7.54c.408-.43.83-.849,1.256-1.261a1.6,1.6,0,0,1,2.326.008q2.245,2.229,4.474,4.475a1.6,1.6,0,0,1,0,2.327c-.578.594-1.171,1.173-1.756,1.76a1.165,1.165,0,0,0-.186,1.729c.256.384.528.756.794,1.132a.583.583,0,0,1-.058.873.583.583,0,0,1-.849-.2c-.319-.443-.639-.886-.936-1.343a2.227,2.227,0,0,1,.3-2.847c.593-.605,1.2-1.2,1.8-1.8.354-.356.354-.575,0-.933q-2.136-2.139-4.274-4.275c-.358-.358-.578-.361-.929,0a16.584,16.584,0,0,0-1.495,1.576,5.335,5.335,0,0,0-.567,5.92,31.4,31.4,0,0,0,8.349,10.51,29.626,29.626,0,0,0,5.963,3.794,5.54,5.54,0,0,0,6.083-.9c.474-.429.917-.894,1.366-1.35a.492.492,0,0,0,0-.771q-2.212-2.222-4.434-4.435a.493.493,0,0,0-.789.011c-.6.6-1.2,1.2-1.8,1.8a2.229,2.229,0,0,1-3,.3c-.646-.438-1.266-.915-1.9-1.375a.5.5,0,0,1-.229-.613.75.75,0,0,1,.413-.4.756.756,0,0,1,.535.151c.6.414,1.185.865,1.787,1.284a1.114,1.114,0,0,0,1.6-.154c.6-.59,1.184-1.186,1.779-1.777a1.613,1.613,0,0,1,2.427,0q2.192,2.183,4.375,4.375a1.62,1.62,0,0,1,.006,2.431c-.457.462-.908.931-1.39,1.365a6.558,6.558,0,0,1-3.779,1.676,1.421,1.421,0,0,0-.191.047Z" transform="translate(-1166.633 289.64)" fill="#0f2154"/><path d="M1460.774-344.708a1.723,1.723,0,0,1-.292.289c-.383.231-.793-.05-.843-.526a16.852,16.852,0,0,0-.342-2.649,11.078,11.078,0,0,0-8.486-8.345,15.935,15.935,0,0,0-2.4-.29c-.407-.039-.662-.237-.657-.58s.265-.556.675-.555a12.5,12.5,0,0,1,12.107,10.028c.1.533.161,1.074.24,1.611Z" transform="translate(-1431.839 357.364)" fill="#0f2154"/><path d="M1448.556-297.353a9.07,9.07,0,0,1,8.729,7.828c.052.372.077.749.092,1.124a.574.574,0,0,1-.556.673c-.343,0-.558-.245-.57-.66a7.92,7.92,0,0,0-5.954-7.572,9.268,9.268,0,0,0-1.839-.25c-.515-.024-.711-.329-.7-.6.013-.35.277-.55.715-.545Z" transform="translate(-1431.844 300.75)" fill="#0f2154"/><path d="M1448.516-237.563a5.706,5.706,0,0,1,5.484,5.51,1.329,1.329,0,0,1,0,.2.563.563,0,0,1-.582.534.568.568,0,0,1-.541-.545,8.679,8.679,0,0,0-.195-1.278,4.511,4.511,0,0,0-4.2-3.272,1.613,1.613,0,0,1-.253-.018.529.529,0,0,1-.444-.482.531.531,0,0,1,.346-.582A2.327,2.327,0,0,1,1448.516-237.563Z" transform="translate(-1431.865 244.344)" fill="#0f2154"/><path d="M1450.574-174.941a.565.565,0,0,1-.5.664.559.559,0,0,1-.62-.547,1.137,1.137,0,0,0-1.155-1.148.559.559,0,0,1-.541-.6.563.563,0,0,1,.647-.519A2.248,2.248,0,0,1,1450.574-174.941Z" transform="translate(-1431.846 187.295)" fill="#0f2154"/><path d="M1335.054-42.545a.562.562,0,0,1-.55.565.57.57,0,0,1-.568-.579.556.556,0,0,1,.569-.543A.545.545,0,0,1,1335.054-42.545Z" transform="translate(-1324.466 60.891)" fill="#0f2154"/></g></g></svg>