<svg xmlns="http://www.w3.org/2000/svg" width="134.068" height="100.393" viewBox="0 0 134.068 100.393"><g transform="translate(-499.83 -148.825)"><path d="M6077.973-2149.056s13.765-25.046,2.66-45.607-26.827-25.306-35.855-15,3.54,24.1,16.9,11.049,12.044-70.383-34.873-70.142" transform="matrix(-0.259, -0.966, 0.966, -0.259, 4268.645, 5472.441)" fill="none" stroke="#f77b0c" stroke-width="4"/><path d="M-1922.032-1021.3v.216a.877.877,0,0,1-.565.576q-7.445,3.431-14.888,6.866c-.756.348-1.517.683-2.276,1.024h-.108c-.664-.135-.729-.757-.384-1.21,1.807-2.373,3.587-4.766,5.376-7.152l.158-.213c-.044-.061-.078-.11-.114-.158l-4.365-5.818c-.378-.5-.761-1-1.133-1.513a.649.649,0,0,1,.312-1.037.786.786,0,0,1,.59.073q8.424,3.89,16.851,7.774A.866.866,0,0,1-1922.032-1021.3Z" transform="translate(-6.034 2359.132) rotate(76)" fill="#f77b0c"/></g></svg>