<svg xmlns="http://www.w3.org/2000/svg" xmlns:xlink="http://www.w3.org/1999/xlink" width="1292" height="681.788" viewBox="0 0 1292 681.788"><defs><clipPath id="a"><rect width="344.037" height="227.158" rx="14.222" fill="none"/></clipPath><radialGradient id="b" cx="0.109" cy="0.359" r="0.627" gradientTransform="translate(0.159) scale(0.683 1)" gradientUnits="objectBoundingBox"><stop offset="0" stop-color="#fff"/><stop offset="1" stop-color="#fff" stop-opacity="0"/></radialGradient><linearGradient id="c" x1="0.5" x2="0.5" y2="1" gradientUnits="objectBoundingBox"><stop offset="0" stop-color="#ffd71d"/><stop offset="1" stop-color="#feb200"/></linearGradient><linearGradient id="d" x1="-45.742" y1="0.5" x2="-44.742" y2="0.5" gradientUnits="objectBoundingBox"><stop offset="0" stop-color="#343a44"/><stop offset="0.301" stop-color="#232c3d"/><stop offset="0.639" stop-color="#172339"/><stop offset="1" stop-color="#142138"/></linearGradient><linearGradient id="e" x1="-31.686" y1="0.5" x2="-30.686" y2="0.5" xlink:href="#d"/></defs><g transform="translate(-1117.486 -256.045)" opacity="0.3"><path d="M1223.885,677.645c-65.223,41.015-99.384,133.44-46.588,256.614H2216.092c17.628-44.627,28.182-103.251,31.5-138.146,7.229-76.129-18.656-155.208-64.273-196.956-115.441-105.652-211.421,41.1-272.108-20.937-35.029-35.813-31.709-136.325-59.12-182.983-60.5-102.992-174.419-153.766-286.728-135.543-74.738,12.127-142.148,51.686-183.271,118.6-56.323,91.649-15.323,157.311-40.184,220.655C1314.187,669.571,1267.459,650.243,1223.885,677.645Z" transform="translate(37.98 0)" fill="#afb3bd"/><g transform="translate(1343.407 469.38)"><path d="M1229.468,403.374c-.146.591,9.488-5.393,9.488-5.393l4.072-6.315s3.981-2.569,6.834-3.955,8.1-9.92,8.1-9.92l-2.075-2.6s-3,3.65-3.979,4.244-2.987.1-2.987.1a53.568,53.568,0,0,1,2.3-6.44c1.6-3.788,6.459-9.906,6.459-9.906l-1.827-1.916a51.777,51.777,0,0,0-3.977,4.165c-1.054,1.393-3.076,4.318-3.076,4.318a57.332,57.332,0,0,1,3.4-7.074c1.3-1.921,2.711-4.526,2.711-4.526l-2.111-1.467a47.661,47.661,0,0,0-3.744,5.333c-1.274,2.285-3.629,6.073-3.629,6.073a75.23,75.23,0,0,1,2.68-7.487,26.845,26.845,0,0,0,1.217-2.535l-2.505-.854a20.122,20.122,0,0,0-2.961,5.291,28.061,28.061,0,0,1-1.908,4.371s.738-4.9,1.569-6.344a5.509,5.509,0,0,0,.856-2.033l-2.03-.384s-3.9,7.184-5.948,11.639-3.651,10.472-4.81,13.727-2.656,14.351-2.656,14.351Z" transform="translate(-1218.619 -356.687)" fill="#f5c5b3"/><path d="M1295.01,427.647l-49.38-8.5a164.265,164.265,0,0,1-.536-25.306c.871-14.781,2.681-18.893,2.681-18.893l-13.251-1.836s-2.616,11.637-4.494,20c-4.161,18.546-7.964,35.919-4.787,39.792,4.611,5.619,45.7,17.058,59.764,27.6C1293.471,466.854,1292.977,446.536,1295.01,427.647Z" transform="translate(-1224.066 -338.3)" fill="#42b2fc"/><path d="M1291.884,473.03l-2.5,17.079,5.161,11.7,3.77-5.1.869-9.543,5.573.838,2.736-3.432-.238-7.151-.917-19.461Z" transform="translate(-1150.924 -243.278)" fill="#fec4ad"/><path d="M1297.562,404.071c-3.8-1.405-16.222-.487-16.222-.487s-1.17,13.257,3.873,23.5,17.545,47.537,19.129,51.041-3.315,56.137-3.315,56.137l18.139-3.718s8.742-40.593,8.674-50.912-9.723-48.941-16.583-61.252S1306.8,407.482,1297.562,404.071Z" transform="translate(-1160.066 -304.504)" fill="#42b2fc"/><path d="M1290.618,385.746s-3.989,17.5-.867,21.573c1.829,2.387,9.586,10.889,9.586,10.889s-25.7,13.566-33.248,13.566-4.907-15.154-4.907-15.154,8.237-6.51,9.465-9.8S1272.558,394,1272.558,394Z" transform="translate(-1183.009 -324.148)" fill="#fec4ad"/><g transform="translate(73.993 25.336)"><g transform="translate(36.118 30.699)"><path d="M1276.518,389.336s-.292-6.374,5.047-6.211c3.409.106,3.674,3.228,1.017,7.26-1.119,1.7-1.231,5.537-2.62,6.768-1.687,1.5-3.1-.814-3.614-1.87C1275.5,393.539,1276.518,389.336,1276.518,389.336Z" transform="translate(-1276.011 -383.121)" fill="#f5c5b3"/></g><g transform="translate(0 30.699)"><path d="M1266.828,389.336s.293-6.374-5.047-6.211c-3.409.106-3.674,3.228-1.017,7.26,1.119,1.7,1.231,5.537,2.62,6.768,1.687,1.5,3.1-.814,3.612-1.87C1267.845,393.539,1266.828,389.336,1266.828,389.336Z" transform="translate(-1258.972 -383.121)" fill="#f5c5b3"/></g><path d="M1299.639,387.074a60.709,60.709,0,0,1-1.079,6.484c-.127.74-.267,1.586-.4,2.565-1.1,7.652-2.5,18.054-3.108,19.605-1,2.576-6.463,6.743-9.058,8.269s-9.123,1.212-11.718-.314-8.466-5.38-9.465-7.955c-.613-1.581-2.062-12.284-3.175-20.061-.125-.888-.248-1.653-.367-2.33a58.654,58.654,0,0,1-1.054-6.264c-.4-6.463,6.879-15.864,19.716-15.864C1295.112,371.21,1300.04,380.611,1299.639,387.074Z" transform="translate(-1257.601 -365.761)" fill="#f5c5b3"/><path d="M1263.238,377.71a30.7,30.7,0,0,1,23.514.858l4.53-2.883a37.141,37.141,0,0,0-16.1-3.387C1265.7,372.368,1263.238,377.71,1263.238,377.71Z" transform="translate(-1254.195 -364.543)" fill="#e8d4e5" style="mix-blend-mode:multiply;isolation:isolate"/><g transform="translate(3.665 26.013)"><path d="M1298,382.7c-.127.74-.265,1.586-.405,2.565-1.1,7.652-2.5,18.054-3.108,19.605-1,2.576-6.463,6.743-9.057,8.269s-9.123,1.212-11.718-.314-8.468-5.38-9.465-7.955c-.613-1.581-2.062-12.284-3.175-20.061-.127-.888-.248-1.653-.367-2.33l1.047-1.564s1.891,11.093,4.787,14.537,3.445,3.6,3.445,3.6l5.922-1.463c.159-.042.316-.081.473-.119a13.914,13.914,0,0,1,6.908.055c.125.03.248.064.375.1l.43.127,4.485,1.3s1.045-.161,3.941-3.6,4.291-14.537,4.291-14.537Z" transform="translate(-1260.701 -380.911)" fill="#7b2b1a"/></g><path d="M1282.35,380.934c-.042.212-1.086,7.771-1.513,8.967-.655,1.829-1.157,3.154-1.157,3.154l-.778-1.692a25.145,25.145,0,0,1-2.3-9.98l-.138-6.48,2.156-1.908C1282.872,373.63,1283.328,376.091,1282.35,380.934Z" transform="translate(-1239.381 -363.761)" fill="#7b2b1a"/><path d="M1267.68,375.013l0,.03-1.034,6.669a25.18,25.18,0,0,1-3.1,8.772l-.089.155-1.176,2.029s-.345-1.179-.829-2.853c-.354-1.234-1.234-7.555-1.444-8.445-.068-.28-.127-.551-.178-.812-.905-4.744-.021-6.73,4.184-7.36Z" transform="translate(-1258.376 -363.537)" fill="#7b2b1a"/><path d="M1296.46,377.874l-2.156,1.908-4.106,1.475c-.494-.509-7.977-3.1-14.465-2.6-8.229.634-9.355,3-9.473,3.15l0,.008-.848-.187-4.043-.884-.827-.18a25.727,25.727,0,0,1,1.613-4.574c3.239-4.878,12.042-8.034,20.044-7.224.271.025.539.055.8.093,7.474.986,10.9,4.507,10.9,4.507Z" transform="translate(-1257.218 -368.639)" fill="#7b2b1a"/></g><path d="M1303.205,568.888v16.027h-30.8s1.157-5.8,15.765-8.479l2.149-7.548Z" transform="translate(-1169.94 -119.076)" fill="#133a50"/><path d="M1281.1,568.888v16.027h-30.8s1.16-5.8,15.767-8.479l2.147-7.548Z" transform="translate(-1194.689 -119.076)" fill="#133a50"/><path d="M1314.455,456.335s4.312,51.624,4.462,93.725,2.658,148.529,2.658,148.529h-17s-17.53-102.221-23.9-129.284-22.94-112.463-22.94-112.463Z" transform="translate(-1186.367 -245.106)" fill="#133a50"/><path d="M1288.474,511.666s-3.186,64.146-3.824,76.775,0,109.977,0,109.977-15.93.43-15.93,0S1253.7,594.752,1251.754,563.63s-.806-68.014-3.389-72.317,6.974-34.88,6.974-34.88l22.548,6.014Z" transform="translate(-1197.354 -244.998)" fill="#133a50"/><path d="M1278.335,398.105s-7.069,16.023,3.565,17.793c16.9,2.813,22.046-18.808,22.046-18.808l18.632,9.592s-.341,115.992,6.983,151.4c4.25,20.56-66.509,10.762-76.887-7.489-8.984-15.792,16.969-147.04,16.969-147.04Z" transform="translate(-1194.149 -311.446)" fill="#fff"/><path d="M1287.84,398.036c-.513.708-25.5,73.86-17,142.7,1.982,16.055,31.253,2.771,38.236,2.771,0,0,3.319-51.378,4.133-70.486s-8.294-25.388-7.48-34.738,10.976-26.02,10.976-26.02Z" transform="translate(-1173.664 -310.387)" fill="#42b2fc"/><g transform="translate(49.541 88.345)"><path d="M1270.294,547.658c2.858-47.86,4.028-148.039,4.028-148.039l-16.886-1.255s-8.447,84.025-8.572,93.576c-.049,3.8,1.136,49.939-1.427,58.575C1253.131,551.37,1269.951,553.424,1270.294,547.658Z" transform="translate(-1247.437 -398.364)" fill="#42b2fc"/></g></g><path d="M1372.277,385.743c-13.257,4.547-26.885,9.306-37.413,18.556s-17.308,24.222-12.873,37.517,22.912,21.034,33.594,11.962c3.839-3.258,6.209-8.852,4.149-13.445-4.077-9.085-18.274-4.825-24.928,2.58-7.894,8.784-12.914,20.795-10.959,32.441s12.125,22.109,23.934,22.1,28.636-17.825,18.526-23.93c-12.835-7.754-29.333,10.709-35.648,24.311s-2.368,32.017,10.536,39.658,43.175-2.02,35.245-14.747c-8.381-13.452-33.146,5.942-36.438,21.448s8.846,32.491,24.581,34.4,42.99-16.006,32.1-27.521c-15.739-16.636-41.975,25.729-34.4,47.342s38.87,30.217,56.427,15.51c3.288-2.754,6.256-6.692,5.645-10.938-1.015-7.074-10.7-9.066-17.478-6.8-17.685,5.908-25.672,30.658-14.779,45.789s36.9,15.406,48.112.511c2.186-2.9,3.883-6.548,3.089-10.094-1.111-4.952-6.974-7.748-11.96-6.811s-9.013,4.7-11.854,8.9c-10.088,14.944-6.683,37.4,7.383,48.678s36.723,9.727,49.119-3.366c3.23-3.411,5.9-7.977,5.047-12.6-.988-5.342-6.69-8.922-12.123-8.793s-10.414,3.241-14.183,7.154c-15.83,16.443-9.064,48.262,12.089,56.837s63.107-15.04,48.256-32.373c-9.918-11.574-29.488,13.462-26.984,28.5s19.8,25.284,34.541,21.411,34.158-25.019,22.768-35.15c-8.059-7.169-21.1,7.987-23.59,18.482a24.781,24.781,0,0,0,12.777,27.109c10.421,5.123,23.18,2.039,33.2-3.826s18.336-14.243,27.987-20.7a87.549,87.549,0,0,1,66.876-12.53" transform="translate(227.448 145.229)" fill="none" stroke="#fff" stroke-miterlimit="10" stroke-width="2"/><g transform="translate(1945.73 599.221)"><path d="M1769.386,418.758c-21.471-13.706-212.865,147.645-205.851,275.118,0,0,37.258-50.319,69.735-74.842s35.644-50.191,35.582-75.614,48.506-14.923,53.977-43.122C1732.509,450.4,1788.71,431.093,1769.386,418.758Z" transform="translate(-1446.479 -417.94)" fill="#4fae86"/><g transform="translate(111.446 31.875)"><g transform="translate(3.755)"><path d="M1782.842,520.683c-30.921,18.728-21.818,43.692-40.05,58.276-13.26,10.607-35.385,5.058-46.412,19.5-12.43,16.278,1.7,38.679,2.75,58.3,1.444,27.094-22.724,47.41-47.281,55.639-28.515,9.556-65.422,6.567-81.031-21.787-18.425-33.466-4.631-83.923,27.693-99.643,7.851-3.818,17.823-4.852,24.237-12.581,10.828-13.049,3.877-31.813,8.892-48.409,4.886-16.172,20.877-27.548,35.61-32.589s29.736-6.062,44.131-11.909c19.6-7.96,36.771-25.456,53.094-37.259,14.561-10.527,65.676-30.279,73.992,4.24C1846.04,483.906,1808.815,504.951,1782.842,520.683Z" transform="translate(-1562.56 -432.977)" fill="#319188"/></g><path d="M1788.011,450.62s-126.384,63.514-227.222,268.455" transform="translate(-1560.789 -413.222)" fill="none" stroke="#194459" stroke-miterlimit="10" stroke-width="1"/></g><path d="M1861.165,495.78s-162.509-1.819-297.542,153.08" transform="translate(-1446.171 -330.781)" fill="none" stroke="#fff" stroke-miterlimit="10" stroke-width="1"/><g transform="translate(123.681 196.133)"><g transform="translate(25.07)"><path d="M1764.044,551.8c-15.487,6.2-19.688,32.309-36.369,35.622-12.129,2.412-25.077-8.331-36.93-2.758-13.359,6.281-11.006,25.117-16.468,37.916-7.544,17.677-29.961,22.694-48.848,19.911-21.929-3.235-45.492-17.172-46.957-40.269-1.729-27.264,23.262-54.806,49.655-54.244,6.408.136,13.355,2.732,20.036-.083,11.283-4.755,12.559-18.938,21.1-27.841,8.32-8.676,22.506-10.683,33.867-9.079s21.643,5.851,33.034,6.834c15.512,1.34,32.4-4.172,46.938-6.342,12.971-1.935,65.948-.914,47.79,26.83C1818.316,557.5,1784.684,543.535,1764.044,551.8Z" transform="translate(-1578.388 -510.467)" fill="#4fae86"/></g><path d="M1810.7,517.9s-112.885,9.607-244.142,106.859" transform="translate(-1566.561 -502.149)" fill="none" stroke="#194459" stroke-miterlimit="10" stroke-width="1"/></g><path d="M1508.214,621.056s25.687-44.973,29.875-49.608c26.423-29.248,61.475-29.57,97.159-22.183,10.325,2.137,37.66,16.5,47.576,14.512,7.727-1.547,17-30.908,41.725-29.363s26.218,30.908,26.218,30.908S1766.274,531.2,1791,534.355s24.725,26.181,6.181,43.255c0,0,39.406-11.824,77.655,6.489s19.979,42.329,19.979,42.329Z" transform="translate(-1508.214 -287.816)" fill="#319188"/></g><g transform="translate(1166.25 599.221)"><path d="M1186.054,418.758c21.471-13.706,212.865,147.645,205.851,275.118,0,0-37.261-50.319-69.735-74.842s-35.646-50.191-35.582-75.614S1238.078,528.5,1232.61,500.3C1222.928,450.4,1166.73,431.093,1186.054,418.758Z" transform="translate(-1093.967 -417.94)" fill="#4fae86"/><g transform="translate(22.892 31.875)"><path d="M1207.91,520.683c30.921,18.728,21.818,43.692,40.05,58.276,13.257,10.607,35.383,5.058,46.412,19.5,12.43,16.278-1.7,38.679-2.749,58.3-1.444,27.094,22.722,47.41,47.281,55.639,28.515,9.556,65.42,6.567,81.032-21.787,18.425-33.466,4.631-83.923-27.692-99.643-7.852-3.818-17.823-4.852-24.237-12.581-10.828-13.049-3.877-31.813-8.892-48.409-4.888-16.172-20.877-27.548-35.61-32.589s-29.736-6.062-44.131-11.909c-19.6-7.96-36.771-25.456-53.093-37.259-14.561-10.527-65.678-30.279-73.992,4.24C1144.712,483.906,1181.935,504.951,1207.91,520.683Z" transform="translate(-1151.29 -432.977)" fill="#319188"/><path d="M1176.5,450.62s126.386,63.514,227.224,268.455" transform="translate(-1123.065 -413.222)" fill="none" stroke="#194459" stroke-miterlimit="10" stroke-width="1"/></g><path d="M1140.491,495.78s162.509-1.819,297.541,153.08" transform="translate(-1140.491 -330.781)" fill="none" stroke="#fff" stroke-miterlimit="10" stroke-width="1"/><g transform="translate(9.99 196.133)"><path d="M1215.8,551.8c15.487,6.2,19.688,32.309,36.366,35.622,12.131,2.412,25.077-8.331,36.931-2.758,13.361,6.281,11.008,25.117,16.468,37.916,7.544,17.677,29.963,22.694,48.85,19.911,21.929-3.235,45.49-17.172,46.957-40.269,1.728-27.264-23.262-54.806-49.655-54.244-6.41.136-13.354,2.732-20.038-.083-11.283-4.755-12.557-18.938-21.093-27.841-8.32-8.676-22.505-10.683-33.867-9.079s-21.643,5.851-33.034,6.834c-15.512,1.34-32.4-4.172-46.94-6.342-12.968-1.935-65.947-.914-47.789,26.83C1161.529,557.5,1195.158,543.535,1215.8,551.8Z" transform="translate(-1145.204 -510.467)" fill="#4fae86"/><path d="M1162.744,517.9s112.885,9.607,244.142,106.859" transform="translate(-1125.563 -502.149)" fill="none" stroke="#194459" stroke-miterlimit="10" stroke-width="1"/></g><path d="M1542.791,621.056s-25.689-44.973-29.878-49.608c-26.421-29.248-61.475-29.57-97.159-22.183-10.323,2.137-37.657,16.5-47.576,14.512-7.727-1.547-17-30.908-41.725-29.363s-26.215,30.908-26.215,30.908S1284.729,531.2,1260,534.355s-24.727,26.181-6.181,43.255c0,0-39.408-11.824-77.655,6.489s-19.981,42.329-19.981,42.329Z" transform="translate(-1127.798 -287.816)" fill="#319188"/></g><g transform="translate(1779.798 656.861)"><g transform="translate(27.233 240.18)"><path d="M1493.828,597.776h-39.977A8.481,8.481,0,0,1,1445.4,590l-2.618-31.559H1504.9L1502.279,590A8.481,8.481,0,0,1,1493.828,597.776Z" transform="translate(-1442.782 -558.438)" fill="#21295b"/><path d="M1605.179,597.776h-39.974a8.48,8.48,0,0,1-8.452-7.779l-2.62-31.559h62.115L1613.631,590A8.481,8.481,0,0,1,1605.179,597.776Z" transform="translate(-1318.096 -558.438)" fill="#21295b"/></g><path d="M1734.607,628.588H1444.736l20.5-149.438a23.545,23.545,0,0,1,23.328-20.343h202.224a23.543,23.543,0,0,1,23.325,20.343Z" transform="translate(-1413.361 -429.819)" fill="#ff3a46"/><path d="M1674.823,614.913H1463.191l15.033-150.127a21.83,21.83,0,0,1,21.723-19.654h138.118a21.83,21.83,0,0,1,21.721,19.654Z" transform="translate(-1392.696 -445.132)" fill="#ff3a46"/><path d="M1449.389,522.9l-4.654,33.926h289.872l-4.653-33.926Z" transform="translate(-1413.361 -358.054)" fill="#cfcfcf" style="mix-blend-mode:multiply;isolation:isolate"/><path d="M1782.555,606.72h-352.62l6.528-76.609h339.564Z" transform="translate(-1429.935 -349.977)" fill="#ff3a46"/><g transform="translate(87.045 4.154)"><circle cx="64.514" cy="64.514" r="64.514" transform="translate(0 70.397) rotate(-33.065)" fill="#cfcfcf" style="mix-blend-mode:multiply;isolation:isolate"/><circle cx="55.783" cy="55.783" r="55.783" transform="translate(32.193 34.802) rotate(-1.34)" fill="#fff"/><g transform="translate(40.745 40.757)"><g transform="translate(56.849 79.908)"><path d="M1524.3,518.492a7.277,7.277,0,0,1-5.13-2.111,5.81,5.81,0,0,1-.89-1.117,7.215,7.215,0,0,1-.682-1.24,10.178,10.178,0,0,1-.413-1.346,8.338,8.338,0,0,1-.145-1.427,7.262,7.262,0,0,1,8.668-7.1,7.76,7.76,0,0,1,1.346.413,8.473,8.473,0,0,1,1.264.661,8,8,0,0,1,1.094.911,7.289,7.289,0,0,1,2.132,5.111,8.39,8.39,0,0,1-.146,1.427,9.887,9.887,0,0,1-.411,1.346,9.125,9.125,0,0,1-.663,1.24,6.764,6.764,0,0,1-.911,1.117,7.425,7.425,0,0,1-1.094.89,5.792,5.792,0,0,1-1.264.663,6.387,6.387,0,0,1-1.346.413A6.606,6.606,0,0,1,1524.3,518.492Z" transform="translate(-1517.039 -504.016)" fill="#b3b3b3"/></g><path d="M1531.881,563.249h0a7.245,7.245,0,0,1-6.145-8.2h0a7.24,7.24,0,0,1,8.193-6.143h0a7.266,7.266,0,0,1,6.147,8.193h0a7.257,7.257,0,0,1-7.182,6.228h0A5.8,5.8,0,0,1,1531.881,563.249Zm-23.277-9.891h0a7.263,7.263,0,0,1-1.242-10.179h0a7.24,7.24,0,0,1,10.16-1.242h0a7.24,7.24,0,0,1,1.242,10.158h0a7.2,7.2,0,0,1-5.713,2.794h0A7.205,7.205,0,0,1,1508.6,553.358ZM1493.4,533.123a7.216,7.216,0,0,1,4-9.414h0a7.246,7.246,0,0,1,9.435,3.994h0a7.272,7.272,0,0,1-4.015,9.433h0a7.285,7.285,0,0,1-2.711.517h0A7.2,7.2,0,0,1,1493.4,533.123Zm3.065-16.924a7.26,7.26,0,0,1-6.168-8.195h0a7.251,7.251,0,0,1,8.195-6.145h0a7.251,7.251,0,0,1,6.167,8.174h0a7.255,7.255,0,0,1-7.18,6.228h0A8.553,8.553,0,0,1,1496.46,516.2Zm4.986-21.312a7.243,7.243,0,0,1-1.263-10.16h0a7.226,7.226,0,0,1,10.16-1.261h0a7.221,7.221,0,0,1,1.261,10.158h0a7.194,7.194,0,0,1-5.71,2.794h0A7.2,7.2,0,0,1,1501.446,494.887Zm58.471-7.2a7.226,7.226,0,0,1-1.263-10.158h0a7.242,7.242,0,0,1,10.16-1.285h0a7.268,7.268,0,0,1,1.263,10.181h0a7.272,7.272,0,0,1-5.713,2.794h0A7.293,7.293,0,0,1,1559.917,487.686Zm-43.512-8.772a7.219,7.219,0,0,1,3.992-9.416h0a7.248,7.248,0,0,1,9.437,3.994h0a7.256,7.256,0,0,1-4.015,9.435h0a7.254,7.254,0,0,1-2.709.517h0A7.215,7.215,0,0,1,1516.4,478.915Zm27.084,1.819a7.24,7.24,0,0,1-6.145-8.193h0a7.219,7.219,0,0,1,8.174-6.145h0a7.22,7.22,0,0,1,6.164,8.174h0a7.247,7.247,0,0,1-7.158,6.226h0A8.43,8.43,0,0,1,1543.489,480.733Z" transform="translate(-1490.221 -466.319)" fill="#b3b3b3"/><g transform="translate(79.916 25.697)"><path d="M1535.164,492.92a7.934,7.934,0,0,1-1.407-.146,7.317,7.317,0,0,1-1.365-.413,8.879,8.879,0,0,1-1.24-.661,7.781,7.781,0,0,1-1.117-.911,7.262,7.262,0,0,1-2.113-5.109,6.665,6.665,0,0,1,.146-1.429,6.311,6.311,0,0,1,.416-1.346,6.982,6.982,0,0,1,.661-1.261,7.72,7.72,0,0,1,.89-1.1,6.649,6.649,0,0,1,1.117-.888,6.382,6.382,0,0,1,1.24-.683,7.622,7.622,0,0,1,1.365-.394,7.293,7.293,0,0,1,6.519,1.965,6.593,6.593,0,0,1,.909,1.1,7.317,7.317,0,0,1,.663,1.261,6.29,6.29,0,0,1,.414,1.346,6.663,6.663,0,0,1,.144,1.429,7.277,7.277,0,0,1-7.241,7.241Z" transform="translate(-1527.921 -478.441)" fill="#b3b3b3"/></g></g></g></g><g transform="translate(1572.812 410.371)"><path d="M1474.984,395.443s-7.669-16.57,6.213-32.36c0,0,52.46,33.988,111.094,24.4,0,0,6.429,17.681-11.595,34.058C1580.7,421.541,1517.932,433.444,1474.984,395.443Z" transform="translate(-1174.871 -290.515)" fill="#d6313b"/><path d="M1722.2,358.532c-37.749-31.834-109.26-36.309-199.773-21.736-77.831,12.532-157.1,41.928-183.56,83.454-12.051,18.91-3.867,71.438-3.867,71.438,71.7,4.477,97.96-57.161,97.96-57.161s-4.795-17.49,11.269-25.221c56.207-27.048,143.352-36.288,175.769-28.3a24.013,24.013,0,0,1,18.613,20.409s44.281,50.28,110.952,23.525C1749.566,424.941,1739.345,372.986,1722.2,358.532Z" transform="translate(-1332.288 -328.849)" fill="#ff3a46"/><path d="M1446.849,407.195s2.079-18.139-16.057-28.776c0,0-39.141,48.737-97.82,58.037,0,0-.555,18.806,21.7,28.7C1354.67,465.155,1418,456.756,1446.849,407.195Z" transform="translate(-1331.524 -273.343)" fill="#d6313b"/></g><g transform="translate(1359.895 708.87)"><g transform="translate(0 0)" clip-path="url(#a)"><rect width="344.037" height="227.158" rx="14.222" fill="#ffd71d"/><path d="M1575.88,499.816a30.148,30.148,0,0,0-30.147-30.149H1261.992a30.15,30.15,0,0,0-30.149,30.149l156.007,126.47a25.142,25.142,0,0,0,31.641.017Z" transform="translate(-1231.844 -469.668)" fill="#ffd71d" style="mix-blend-mode:multiply;isolation:isolate"/><path d="M1251.922,673.383V506.519a30.148,30.148,0,0,1,30.149-30.147h282.4a29.86,29.86,0,0,0-18.741-6.7h-283.74a30.148,30.148,0,0,0-30.147,30.147V666.678a30.146,30.146,0,0,0,30.147,30.147h1.339A29.957,29.957,0,0,1,1251.922,673.383Z" transform="translate(-1231.843 -469.668)" opacity="0.7" fill="url(#b)" style="mix-blend-mode:overlay;isolation:isolate"/><path d="M1384.851,604.3,1231.843,469.667H1575.88L1422.875,604.3A28.782,28.782,0,0,1,1384.851,604.3Z" transform="translate(-1231.844 -469.668)" fill="url(#c)"/><path d="M1384.851,604.3,1231.843,469.667H1575.88L1422.875,604.3A28.782,28.782,0,0,1,1384.851,604.3Z" transform="translate(-1231.844 -469.668)" fill="#fd0" opacity="0.7" style="mix-blend-mode:overlay;isolation:isolate"/></g></g><g transform="translate(1704.913 448.422)"><g transform="translate(72.373)"><path d="M1451.739,469.832s9.791-28.258,10.478-31.368c4.057-18.361,5.159-58.168,4.905-66.632s-1.043-15.9-1.208-17.036-5.42-6.8-5.439-6.715a11.212,11.212,0,0,1-1.632.174l-.062,1.062-2.27-1.954-1.893-.106-.2.888-2.7-1.3-2.6-.047s1.678,5.376,2.635,8.642-.042,3.538-.042,3.538-2.09.793-2.915.538a20.292,20.292,0,0,0-3.695-.159s7.9,10.285,8.269,11.239,4.865,5.632,3.18,14.881c-3.016,16.553-11.26,41.14-11.26,41.14.246-.579-10.639,30.5-10.639,30.5Z" transform="translate(-1422.141 -346.8)" fill="#fec4ad"/><path d="M1453.087,455.157c3.031-23.784,15.2-51.552,15.2-51.552s-18.6-3.684-23.4-10.3c0,0-6.41,15.652-10.1,23.436-4.078,8.619-9.8,18-2.612,23.114C1439.12,444.8,1452.031,463.439,1453.087,455.157Z" transform="translate(-1428.75 -294.724)" fill="#42b2fc"/></g><path d="M1406.6,569.737v15.29h29.382s-1.1-5.535-15.037-8.089l-2.05-7.2Z" transform="translate(-1381.175 -97.167)" fill="#133a50"/><path d="M1427.686,569.737v15.29h29.384s-1.1-5.535-15.04-8.089l-2.048-7.2Z" transform="translate(-1357.568 -97.167)" fill="#133a50"/><path d="M1412.521,462.371s-4.112,42.724-4.256,82.882-2.535,148.208-2.535,148.208h16.218s16.72-104.035,22.8-129.851,21.882-100.756,21.882-100.756Z" transform="translate(-1382.154 -217.39)" fill="#133a50"/><path d="M1428.173,395.529s-1.049,8.176-1.91,12.335a33.192,33.192,0,0,1-2.215,7.623c-1.405,2.815-10.031,11.392-10.031,11.392s26.889,14.2,34.794,14.2,5.132-15.856,5.132-15.856-8.619-6.813-9.9-10.255-2-13.409-2-13.409Z" transform="translate(-1372.874 -292.236)" fill="#fec4ad"/><path d="M1425.569,509.043s3.04,67.713,3.648,79.76,0,104.908,0,104.908,15.2.411,15.2,0,14.328-105.411,16.184-135.1.769-64.879,3.235-68.985-6.654-26.749-6.654-26.749l-21.509-.786Z" transform="translate(-1359.939 -217.701)" fill="#133a50"/><path d="M1431.272,408.967s-22.7-9.111-26.456-1.632c-2.836,5.651-.4,41.975.865,52.127,1.1,8.831,7.209,83.111,7.209,83.111s8.488,13.145,49.32,7.911c15.748-2.018,23.489-9.694,23.489-9.694s-4.416-88.631-5.63-97.523-5.418-22.772-5.418-22.772l-12.157-8s3.875,8.56-7.093,11C1433.294,428.4,1431.272,408.967,1431.272,408.967Z" transform="translate(-1384.652 -282.317)" fill="#42b2fc"/><path d="M1446.552,380.95c2.573,1.032,7.071,3.355,7.576,5.5s2.327,8.375,2.565,12.15.776,10.908.772,15.355-2.69,13.446-3.705,14.4-8.479,2.5-11.006,1.778-17.344-8.388-18.272-17.772c0,0-2.629,1.382-7.457-6.448-1.261-2.041,3.086-17.21,3.669-19.915,1.418-6.571,17.623-1.393,21.259-2.429S1446.552,380.95,1446.552,380.95Z" transform="translate(-1369.763 -308.561)" fill="#fec4ad"/><path d="M1458.224,390.385s-11.353,7.11-15.783,7.474-10.932,6.455-10.813,8.341-1.867,3.186-1.867,3.186-2.758-4.392-5.015-3.936c-4.475.905-1.847,6.423.583,7.638a37.573,37.573,0,0,0,4.787,1.961,23.24,23.24,0,0,1,.214,4.731,21.706,21.706,0,0,1-1.893,5.541s-5.24-11.031-9.939-15.15c-11.171-9.787-3.084-27.976,7.922-31.4,4.443-1.38,16.644-2.294,22.586.369A16.177,16.177,0,0,1,1458.224,390.385Z" transform="translate(-1373.859 -312.495)" fill="#133a50"/><path d="M1427.394,394.628c.165.445,1.327.528,1.543.621.464.206.261.276,2.307,3.4,1.509,2.308,4.036,3.052,8.759,1.473,3.606-1.206,3.1-4.305,3.358-5.783s.568-1.725,1.143-1.823.888.034,1.63,1.338,1.087,4.657,4.852,4.093c2.6-.39,3.283-1.109,3.635-3.161a21.421,21.421,0,0,0,.3-4.977c-.1-1.359-.131-2.19-.823-2.262a12.667,12.667,0,0,0-3.095.341c-2.247.394-3.864.439-5.081,1.321s-1.085,1.424-1.725,1.545c-.655.123-.767-.439-2.213-.854s-7.436.636-9.685,1.03-5.333,1.24-5.27,2.088A6.322,6.322,0,0,0,1427.394,394.628Zm19.419-3.347c.114-1.1.2-.979,2.978-1.615s3.069-.511,3.629-.068.971,2.19.687,4.481c-.15,1.238-.4,2.819-2.679,3.22-2.446.428-3.019-.782-3.71-2.478A10.5,10.5,0,0,1,1446.813,391.281Zm-16.188,1.81c.375-.606,4.138-1.119,6.965-1.469s3.771-.464,4.252.532a10.389,10.389,0,0,1,.356,3.633c-.072,1.831-.431,3.432-4.842,4.227-3.11.562-4.617-.3-5.9-2.629C1430.338,395.364,1430.249,393.7,1430.625,393.091Zm-9.437,2.807,6.206-1.27,2.1-3.063s-2.383.339-6.323,1.215a12.079,12.079,0,0,0-3.737,1.762A6.1,6.1,0,0,1,1421.188,395.9Z" transform="translate(-1366.813 -301.192)" fill="#21295b"/><g transform="translate(0 22.137)"><path d="M1400.037,460.735s-5.372-34.026-5.422-37.21c-.307-18.8,9.223-44.063,11.163-52.3s3.235-6.94,3.625-8.023,14.044-3.173,14.044-3.173a36.281,36.281,0,0,1,4.53-1.619c.858-.085,4.46-1.162,4.46-1.162l-2.095,3.769s-8.512,6.474-9.059,7.336-5.893,4.547-6.088,13.944c-.352,16.824-.3,35.048-.3,35.048-.125-.615,8.055,34.84,8.055,34.84Z" transform="translate(-1394.608 -357.243)" fill="#fec4ad"/><path d="M1414.562,468.081c-5.779-16.4-18.995-60.434-18.995-60.434s19.652-4.948,25.2-10.957c0,0,6.631,19.692,9.386,27.853,3.048,9.034,7.638,19.016-.1,23.26C1422.579,451.9,1417.337,475.956,1414.562,468.081Z" transform="translate(-1393.533 -313.072)" fill="#42b2fc"/></g></g><g transform="translate(1968.521 463.621)"><g transform="translate(13.044 146.307)"><path d="M1615.214,447.415c5.1,4.748,8.712,3.158,16.373,29.382,4.895,16.757,22.745,101.265,22.745,101.265l-10.665,4.627c-14.418-40.394-14.4-40.356-31.249-73.14a145.889,145.889,0,0,1-11.589-31.567l-31.147-1.87c-19.472-8-12.8-36.424-12.8-36.424S1610.11,442.665,1615.214,447.415Z" transform="translate(-1490.786 -404.293)" fill="url(#d)"/><path d="M1531.559,440.988l28.1-18,27.188,21.117,33.863,10.938-.182.1c13.62,4.725,29.172,11.618,33.946,16.059,5.1,4.75,15.16,11.489,7.05,37.579-5.181,16.67-27.767,101.116-27.767,101.116l-11.447-2.037s4.066-48.93,8.14-85.536c1.973-17.744,2.643-22.692,2.643-22.692s-75.612,8.242-99.969-4.621C1516.076,486.011,1531.559,454.63,1531.559,440.988Z" transform="translate(-1525.12 -422.991)" fill="url(#e)"/><path d="M1584.472,508.281s-.333,3.074-5.257,4.46-8.276-2.682-8.276-2.682l-1.092,10.041,15.727,11.088h13.064l-7.07-7.843Z" transform="translate(-1475.035 -327.488)" fill="#133a50"/><path d="M1607.1,501.719a5.4,5.4,0,0,1-1.95,7.125c-4.269,2.819-8.7-.036-8.7-.036l2.016,9.9,37.14-11.618Z" transform="translate(-1445.243 -334.836)" fill="#133a50"/></g><path d="M1589.6,407.858c-.059.532-6.187-7.366-6.187-7.366l-1.427-6.465s-2.5-3.345-4.435-5.365-3.65-10.679-3.65-10.679l2.514-1.516a31.087,31.087,0,0,0,1.984,4.727,4.474,4.474,0,0,0,2.438,1,47.115,47.115,0,0,0,.076-6.022c-.159-3.621-2.3-10.166-2.3-10.166l2.1-1.024a46.176,46.176,0,0,1,2.009,4.661c.443,1.473,1.217,4.511,1.217,4.511a50.884,50.884,0,0,0-.642-6.887c-.488-1.986-.854-4.57-.854-4.57l2.2-.566a42.18,42.18,0,0,1,1.458,5.556c.352,2.277,1.134,6.128,1.134,6.128a66.064,66.064,0,0,0,.083-7.006,23.058,23.058,0,0,1-.227-2.467l2.332.061a17.754,17.754,0,0,1,.824,5.28,24.551,24.551,0,0,0,.236,4.195s.892-4.271.649-5.723a4.893,4.893,0,0,1-.085-1.942l1.8.305s1.019,7.133,1.346,11.442-.2,9.772-.238,12.818-.116,5.427-.116,5.427Z" transform="translate(-1457.45 -344.837)" fill="#fec4ad"/><path d="M1568.412,398.208a283.474,283.474,0,0,0,28.987,20.706s5.393-13.524,7.962-23.105c3.069-11.442,3.97-16.712,3.97-16.712l10.934-.895s-3.464,29.257-7.767,49.106c-4.182,19.292-9.439,15.845-14.062,14.9s-48.139-24.328-48.139-24.328l4.657-24.846S1558.051,389.7,1568.412,398.208Z" transform="translate(-1483.883 -326.837)" fill="#fec4ad"/><path d="M1537.15,355.076c2.323-1.329,13.566-2.253,20.6,2.082,13.46,8.288,7,31,6.158,36.227s3.985,14.654,3.907,20.9-1.569,8.509-6.232,14.558a11.565,11.565,0,0,0-1.738,4.827,44.571,44.571,0,0,1-6.264-18.457c-1.1-10.743-3.385-8.237-8.759-20.038s-5.613-29.573-5.613-29.573Z" transform="translate(-1498.604 -353.97)" fill="#471a16"/><path d="M1563.215,362.227l-11.2-7.7s-9.565-1.28-15.114,7.226-7.487,20.824-8.736,30.079-4.509,26.654-4.286,33.556,8.608,7.841,8.608,7.841l28.123-12.165a83.487,83.487,0,0,1-.26-30.55A151.561,151.561,0,0,0,1563.215,362.227Z" transform="translate(-1513.473 -353.422)" fill="#471a16"/><path d="M1562.274,361.665c.583,3.5,3.3,13.778,3.567,20.373s-.515,17.46-4.882,20.458-12.57.6-18.573-1.878-7.453-6.7-8.625-10.567-.759-14.147.612-21.513,6.048-10.334,11.466-11.349S1562.274,361.665,1562.274,361.665Z" transform="translate(-1503.167 -350.507)" fill="#fec4ad"/><path d="M1542.637,370.81s1.534,16.388-1.912,24.1c-2.378,5.325-12.015,7.58-12.015,7.58a54.337,54.337,0,0,0,9.308,28.975c9.67,14.232,39.91,19.5,39.91,19.5a132.011,132.011,0,0,0,9.028-25.2c3.12-13.314-5.327-23.6-5.327-23.6s-8.176-2.675-12.1-4.153c-9.528-3.589-8.413-18.732-8.413-18.732Z" transform="translate(-1508.057 -335.114)" fill="#fec4ad"/><path d="M1569.371,393.862s-19.551-4.964-25.425-8.778l-19.389,11.523s-11.387,10.868,8.049,39.432c0,0,7.377,26.02-4.6,71.857,0,0,3.237,11.807,21.4,5.522,15.631-5.412,15.983-9.641,29.677-13.113,20.218-5.128,25.537-8.282,25.537-8.282-10.62-15.957-8.731-40.881-8.731-40.881s12.04-11.525,6.879-23.3c-7.449-17-9.946-41.062-9.946-41.062l-10.376-2.631s-5.535,6.764-8.291,8.827S1569.371,393.862,1569.371,393.862Z" transform="translate(-1516.417 -320.18)" fill="#42b2fc"/><path d="M1552.466,383.643s-2.38,8.861-8.519,10.783c0,0,2.4,12.136,8.148,10.026,8.068-2.959,4.924-19.741,4.924-19.741Z" transform="translate(-1490.993 -320.744)" fill="#fff"/><path d="M1530.85,385.332s3.83,18.535,14.071,20.034,13.691-9.763,13.691-9.763-21.708-6.366-23.83-13.009Z" transform="translate(-1505.659 -321.92)" fill="#fff"/><path d="M1555.313,357.181c-1.889.121-3.282,9.053-3.474,14.039s-7.65,8.914-4.358,19.879,2.849,21.551,7.262,33.568-1.083,16.417-3.468,20.553c0,0-9.45-10.351-12.647-15.536a12.471,12.471,0,0,0-13.509-6.054s14.425-28.019,13.937-35.571-1.821-19.091,4.193-25.988S1555.313,357.181,1555.313,357.181Z" transform="translate(-1512.076 -350.678)" fill="#471a16"/><path d="M1540.444,369.595s-4.01-4.392-6.658-3.722-2.815,4.642-.8,7.894,9.479,5.09,9.479,5.09Z" transform="translate(-1504.798 -340.72)" fill="#fec4ad"/><path d="M1543.883,372.288c3.637.328,5.7-.2,11.383-.822,7.273-.8,10.338,1.064,10.338,1.064l-2.749-12.091s-8.49-4.719-14.5-4.676c-7.654.053-14.355,2.982-10.561,5.456C1541.806,363.836,1543.883,372.288,1543.883,372.288Z" transform="translate(-1499.111 -351.964)" fill="#471a16"/><g transform="translate(0 75.497)"><path d="M1543.564,404.063c-1.3,15.171-5.759,58.4-5.759,58.4,13.8,12.078,33.345,32.161,33.345,32.161s-5.562,10.968-7.942,9.109c-19.019-14.87-40.759-23.669-42.312-34.022-2.55-17-3.428-59.777,2.832-73.689C1528.554,385.3,1544.942,387.972,1543.564,404.063Z" transform="translate(-1518.966 -389.586)" fill="#fec4ad"/><path d="M1556.786,441.148c5.78,2.173,9.418,4.3,9.072,6.455-.237,1.488-5.172-1.227-8.123-1.134a16.394,16.394,0,0,0,7.025,6.9c3.817,1.878,5.954,4.488,3.911,6.7s-5.812,5.3-8.271,4.17-11.186-7.226-14.471-8.914-4.6-5.817-6.291-6.953,3.094-9.823,3.094-9.823c.912.25,5.677,1.268,5.677,1.268a30.318,30.318,0,0,0,4.725.394C1554.111,440.044,1556.786,441.148,1556.786,441.148Z" transform="translate(-1496.224 -334.77)" fill="#fec4ad"/></g></g><line x2="1292" transform="translate(1117.486 935.246)" fill="none" stroke="#194459" stroke-miterlimit="10" stroke-width="1"/></g></svg>