<svg id="Group_212" data-name="Group 212" xmlns="http://www.w3.org/2000/svg" width="63.443" height="63.443" viewBox="0 0 63.443 63.443">
  <ellipse id="Ellipse_22" data-name="Ellipse 22" cx="31.722" cy="31.721" rx="31.722" ry="31.721" fill="#0f2154"/>
  <g id="Group_211" data-name="Group 211" transform="translate(13.125 13.125)">
    <g id="Group_210" data-name="Group 210">
      <path id="Path_827" data-name="Path 827" d="M477.977,239.985a2.18,2.18,0,1,0,2.183,2.18A2.181,2.181,0,0,0,477.977,239.985Z" transform="translate(-449.535 -233.344)" fill="#fff"/>
      <path id="Path_828" data-name="Path 828" d="M477.272,241.274a9.16,9.16,0,1,0,9.16,9.16A9.17,9.17,0,0,0,477.272,241.274Zm0,15.026a5.867,5.867,0,1,1,5.869-5.866A5.873,5.873,0,0,1,477.272,256.3Z" transform="translate(-458.523 -231.837)" fill="#fff"/>
      <path id="Path_829" data-name="Path 829" d="M489.714,274.118h-14.85a11.185,11.185,0,0,1-11.171-11.173v-14.85a11.184,11.184,0,0,1,11.171-11.171h14.85a11.186,11.186,0,0,1,11.173,11.171v14.85A11.186,11.186,0,0,1,489.714,274.118Zm-14.85-33.695a7.679,7.679,0,0,0-7.672,7.671v14.85a7.681,7.681,0,0,0,7.672,7.674h14.85a7.683,7.683,0,0,0,7.674-7.674v-14.85a7.681,7.681,0,0,0-7.674-7.671Z" transform="translate(-463.692 -236.924)" fill="#fff"/>
    </g>
  </g>
</svg>
