<svg xmlns="http://www.w3.org/2000/svg" width="55.021" height="26.549" viewBox="0 0 55.021 26.549"><g transform="translate(-373.519 11.532)"><path d="M414.677,15.017a5.945,5.945,0,0,1-.989-.605,2.1,2.1,0,0,1,.045-3.133q3.457-3.443,6.928-6.872c.139-.138.3-.251.456-.375l-.052-.148h-.6q-22.132,0-44.264.014a2.456,2.456,0,0,1-2.681-1.727V1.315A2.453,2.453,0,0,1,376.2-.413q22.1.034,44.2.014h.767c-.215-.223-.351-.37-.494-.512q-3.481-3.454-6.965-6.907a2.089,2.089,0,0,1-.589-2.2,2.023,2.023,0,0,1,1.576-1.453,2.148,2.148,0,0,1,2.093.672q3.9,3.871,7.806,7.734c.965.956,1.952,1.89,2.881,2.879a12.96,12.96,0,0,1,1.069,1.5v.856a10.746,10.746,0,0,1-1.067,1.5q-5.126,5.134-10.307,10.215a13.274,13.274,0,0,1-1.522,1.129Z" transform="translate(0)" fill="#0f2154"/></g></svg>