<svg xmlns="http://www.w3.org/2000/svg" width="22.574" height="30.448" viewBox="0 0 22.574 30.448"><g transform="translate(-844.066 1095.647)"><g transform="translate(844.066 -1095.647)"><path d="M856.128-1095.647c.593.1,1.193.168,1.779.3a11.293,11.293,0,0,1,8.563,9.061,11.158,11.158,0,0,1-1.986,8.587c-.59.832-1.176,1.666-1.766,2.5a.584.584,0,0,1-.637.277.516.516,0,0,1-.451-.485.986.986,0,0,1,.174-.542c.564-.826,1.143-1.641,1.726-2.454a10.117,10.117,0,0,0-5.84-15.775,10.119,10.119,0,0,0-12.264,8.007,10.066,10.066,0,0,0,1.795,7.823q3.962,5.584,7.9,11.188c.068.1.138.193.234.327.08-.107.15-.2.214-.287l2.945-4.175a2.045,2.045,0,0,1,.179-.236.582.582,0,0,1,.782-.072.591.591,0,0,1,.17.745,2.261,2.261,0,0,1-.177.273l-2.739,3.884c-.061.087-.118.177-.2.3.138.006.241.014.344.014h7.159a2.613,2.613,0,0,1,.3.005.6.6,0,0,1,.536.578.6.6,0,0,1-.543.6,2.465,2.465,0,0,1-.267,0H846.671c-.069,0-.139,0-.208,0a.6.6,0,0,1-.613-.594.589.589,0,0,1,.614-.591c.663-.009,1.327,0,1.99,0h5.75c-.15-.215-.266-.383-.383-.549q-3.871-5.485-7.74-10.972a10.943,10.943,0,0,1-1.961-5.346,2.259,2.259,0,0,0-.054-.259v-1.606c.059-.4.112-.8.177-1.2a11.312,11.312,0,0,1,8.561-9.026c.587-.129,1.186-.2,1.779-.3Z" transform="translate(-844.066 1095.647)" fill="#0f2154"/><path d="M954.51-990.45a5.359,5.359,0,0,1-5.36,5.339,5.359,5.359,0,0,1-5.334-5.365,5.358,5.358,0,0,1,5.36-5.338A5.358,5.358,0,0,1,954.51-990.45Zm-5.347,4.15a4.17,4.17,0,0,0,4.159-4.156,4.168,4.168,0,0,0-4.145-4.169,4.167,4.167,0,0,0-4.173,4.17A4.169,4.169,0,0,0,949.163-986.3Z" transform="translate(-937.874 1001.761)" fill="#0f2154"/><path d="M1114.6-729.657a.6.6,0,0,1-.593.606.6.6,0,0,1-.591-.579.6.6,0,0,1,.593-.606A.6.6,0,0,1,1114.6-729.657Z" transform="translate(-1097.37 752.003)" fill="#0f2154"/></g></g></svg>