<svg xmlns="http://www.w3.org/2000/svg" width="16.058" height="21.658" viewBox="0 0 16.058 21.658"><g transform="translate(0 0)"><path d="M852.646-1095.647c.422.069.849.119,1.266.212A8.033,8.033,0,0,1,860-1088.99a7.937,7.937,0,0,1-1.413,6.108c-.42.592-.837,1.185-1.256,1.777a.415.415,0,0,1-.453.2.367.367,0,0,1-.32-.345.7.7,0,0,1,.124-.386c.4-.587.813-1.167,1.227-1.746a7.2,7.2,0,0,0-4.154-11.221,7.2,7.2,0,0,0-8.723,5.7,7.16,7.16,0,0,0,1.276,5.565q2.819,3.972,5.617,7.958l.167.233c.057-.076.106-.139.152-.2l2.095-2.97a1.444,1.444,0,0,1,.127-.168.414.414,0,0,1,.556-.051.42.42,0,0,1,.121.53,1.617,1.617,0,0,1-.126.194l-1.948,2.763c-.044.062-.084.126-.143.214.1,0,.171.01.245.01h5.092a1.871,1.871,0,0,1,.211,0,.424.424,0,0,1,.381.411.424.424,0,0,1-.386.427,1.76,1.76,0,0,1-.19,0H845.919c-.049,0-.1,0-.148,0a.426.426,0,0,1-.436-.423.419.419,0,0,1,.437-.42c.472-.006.944,0,1.416,0h4.09c-.107-.153-.189-.272-.273-.391q-2.753-3.9-5.505-7.8a7.784,7.784,0,0,1-1.395-3.8,1.613,1.613,0,0,0-.039-.184v-1.142c.042-.284.08-.57.126-.853a8.046,8.046,0,0,1,6.089-6.421c.417-.092.843-.143,1.265-.213Z" transform="translate(-844.066 1095.647)" fill="#fff"/><path d="M951.423-992a3.812,3.812,0,0,1-3.813,3.8,3.812,3.812,0,0,1-3.794-3.817,3.811,3.811,0,0,1,3.813-3.8A3.811,3.811,0,0,1,951.423-992Zm-3.8,2.952A2.966,2.966,0,0,0,950.578-992a2.965,2.965,0,0,0-2.948-2.966A2.964,2.964,0,0,0,944.661-992,2.965,2.965,0,0,0,947.62-989.047Z" transform="translate(-939.589 1000.044)" fill="#fff"/><path d="M1114.256-729.824a.426.426,0,0,1-.422.431.426.426,0,0,1-.42-.412.425.425,0,0,1,.422-.431A.426.426,0,0,1,1114.256-729.824Z" transform="translate(-1102.001 745.719)" fill="#fff"/></g></svg>