<svg xmlns="http://www.w3.org/2000/svg" width="183.836" height="30.5" viewBox="0 0 183.836 30.5"><g transform="translate(-58.954 -83.791)"><path d="M337.477,121.436a4.642,4.642,0,0,1,1.859,1.434,4.589,4.589,0,0,1,.908,2.049,14.2,14.2,0,0,1,.146,2.356l-.03,10.055h-4.273V127.174a3.335,3.335,0,0,0-.293-1.493,2.081,2.081,0,0,0-2.049-1.112A2.4,2.4,0,0,0,331.359,126a4.5,4.5,0,0,0-.336,1.83v9.5h-4.2v-9.5a5.334,5.334,0,0,0-.293-2.064,2.044,2.044,0,0,0-2.064-1.156,2.463,2.463,0,0,0-2.4,1.156,4.451,4.451,0,0,0-.337,1.961v9.6H317.5V121.407h4.054v2.327a6.7,6.7,0,0,1,1.464-1.771,5.791,5.791,0,0,1,6.1-.132,4.687,4.687,0,0,1,1.376,1.917,5.3,5.3,0,0,1,2.034-2.064,6.206,6.206,0,0,1,2.869-.658A5.558,5.558,0,0,1,337.477,121.436Z" transform="translate(-159.978 -23.04)" fill="#0f2154"/><path d="M422.356,122.244q1.566,1.3,1.567,4.3v10.743h-4.274v-9.7a4.458,4.458,0,0,0-.334-1.932,2.347,2.347,0,0,0-2.325-1.229,2.881,2.881,0,0,0-2.891,1.8,6.221,6.221,0,0,0-.407,2.43v8.635h-4.171V121.359h4.039v2.327a7.058,7.058,0,0,1,1.516-1.771,5.251,5.251,0,0,1,3.25-.966A6.115,6.115,0,0,1,422.356,122.244Z" transform="translate(-216.917 -22.992)" fill="#0f2154"/><path d="M464.267,111.709a5.072,5.072,0,0,1,1.83,1.764v-7.611h4.229v21.544h-4.054V125.2a5.88,5.88,0,0,1-2.035,2.064,5.711,5.711,0,0,1-2.839.644,5.929,5.929,0,0,1-4.706-2.261,8.685,8.685,0,0,1-1.91-5.8,9.984,9.984,0,0,1,1.881-6.425,6.118,6.118,0,0,1,5.027-2.342A5.149,5.149,0,0,1,464.267,111.709Zm1.024,11.365a5.82,5.82,0,0,0,.922-3.41q0-2.927-1.478-4.186a3.183,3.183,0,0,0-2.108-.761,2.929,2.929,0,0,0-2.685,1.383,7.455,7.455,0,0,0,.015,6.967,2.945,2.945,0,0,0,2.642,1.325A3.081,3.081,0,0,0,465.292,123.074Z" transform="translate(-244.924 -13.657)" fill="#0f2154"/><path d="M507.116,130.651a2.777,2.777,0,0,0,.574,1.581,3.888,3.888,0,0,0,2.882.834,4.412,4.412,0,0,0,1.963-.366,1.226,1.226,0,0,0,.142-2.166,23.939,23.939,0,0,0-4.364-1.259,9.057,9.057,0,0,1-3.831-1.683,3.649,3.649,0,0,1-1.112-2.868,4.97,4.97,0,0,1,1.738-3.8A6.99,6.99,0,0,1,510,119.337a8.989,8.989,0,0,1,4.877,1.193,5.107,5.107,0,0,1,2.163,4.12h-4.171a2.466,2.466,0,0,0-.455-1.273,2.868,2.868,0,0,0-2.348-.849,3.382,3.382,0,0,0-1.945.425,1.221,1.221,0,0,0-.58,1,1.089,1.089,0,0,0,.617,1.039,26.655,26.655,0,0,0,4.355,1.156,8,8,0,0,1,3.737,1.771,4.02,4.02,0,0,1,1.229,3,4.844,4.844,0,0,1-1.767,3.871q-1.768,1.5-5.463,1.5-3.769,0-5.565-1.588a5.16,5.16,0,0,1-1.8-4.047Z" transform="translate(-274.689 -21.994)" fill="#0f2154"/><g transform="translate(177.823 83.791)"><circle cx="4.139" cy="4.139" r="4.139" transform="translate(3.351)" fill="#f77b0c"/><path d="M371.6,105.569c1.517.485,2.514.771,3.486,2.462.873,1.517-.561,16.559-.383,17.309.1.421.591.462.985.157a3.35,3.35,0,0,0,.763-1.3c.607-1.392,2.64-7.171,3.782-7.457s3.863,3,5.661,6.4c1.311,2.48,2.715,1.162,2.13-.008s-5.162-14.4-4.722-16.349c.364-1.614,2.24-2.688,2.5-3.354.316-.817-.613-1.873-1.98-.66a8.6,8.6,0,0,1-4.977,2.159c-2.587.3-6.323-1-6.957-1.177C370.872,103.477,370.081,105.085,371.6,105.569Z" transform="translate(-370.752 -95.196)" fill="#f77b0c"/></g><g transform="translate(58.954 93.794)"><path d="M68.038,126.988a1.424,1.424,0,0,0,1.209-.756,2.324,2.324,0,0,0,.174-1.008,2.14,2.14,0,0,0-.952-1.951,5.082,5.082,0,0,0-2.724-.607,3.45,3.45,0,0,0-2.906,1.112,3.679,3.679,0,0,0-.624,1.829H59.769q.073-2.89,1.868-4.022a7.65,7.65,0,0,1,4.166-1.131,8.472,8.472,0,0,1,4.464,1.048,3.557,3.557,0,0,1,1.7,3.261v8.982a1.148,1.148,0,0,0,.167.655.808.808,0,0,0,.706.247,3.9,3.9,0,0,0,.393-.022c.146-.014.3-.036.466-.065V136.5a7.311,7.311,0,0,1-.932.218,6.833,6.833,0,0,1-.873.043,2.155,2.155,0,0,1-1.965-.96,3.7,3.7,0,0,1-.451-1.441,6.678,6.678,0,0,1-2.3,1.82,7.119,7.119,0,0,1-3.3.771,4.917,4.917,0,0,1-3.544-1.316,4.367,4.367,0,0,1-1.376-3.293,4.238,4.238,0,0,1,1.354-3.358,6.447,6.447,0,0,1,3.552-1.469Zm-5.517,7.079a3.082,3.082,0,0,0,1.965.653,5.984,5.984,0,0,0,2.679-.639,3.6,3.6,0,0,0,2.184-3.474V128.5a4.473,4.473,0,0,1-1.235.511,10.513,10.513,0,0,1-1.482.292l-1.584.2a6.119,6.119,0,0,0-2.141.6,2.316,2.316,0,0,0-1.215,2.178A2.151,2.151,0,0,0,62.521,134.067Z" transform="translate(-58.954 -116.48)" fill="#f77b0c"/><path d="M112.929,121.544a6.139,6.139,0,0,1,1.987,4.411h-2.548a4.7,4.7,0,0,0-1.063-2.395,3.357,3.357,0,0,0-2.664-.953,3.681,3.681,0,0,0-3.581,2.443,9.7,9.7,0,0,0-.7,3.911,7.355,7.355,0,0,0,.99,3.94,3.844,3.844,0,0,0,5.7.605,5.447,5.447,0,0,0,1.317-2.718h2.548a6.162,6.162,0,0,1-6.653,5.968,5.965,5.965,0,0,1-4.877-2.234,8.553,8.553,0,0,1-1.82-5.583,9.4,9.4,0,0,1,1.995-6.391,6.444,6.444,0,0,1,5.08-2.286A6.8,6.8,0,0,1,112.929,121.544Z" transform="translate(-85.321 -116.362)" fill="#f77b0c"/><path d="M141.4,110.03h2.649v4.353h2.489v2.14h-2.489V126.7a1.1,1.1,0,0,0,.553,1.092,2.351,2.351,0,0,0,1.019.16c.126,0,.262,0,.408-.01s.315-.022.509-.049v2.082a5.824,5.824,0,0,1-.939.189,8.915,8.915,0,0,1-1.055.058,2.844,2.844,0,0,1-2.489-.939,4.172,4.172,0,0,1-.655-2.438V116.522h-2.111v-2.14H141.4Z" transform="translate(-108.665 -110.03)" fill="#f77b0c"/><path d="M167.708,121.447V131.8a4.461,4.461,0,0,0,.369,1.95,2.559,2.559,0,0,0,2.538,1.4,3.587,3.587,0,0,0,3.629-2.446,9.941,9.941,0,0,0,.525-3.6v-7.657h2.62v15.591h-2.475l.029-2.3a5.271,5.271,0,0,1-1.243,1.5,5.4,5.4,0,0,1-3.571,1.223q-3.271,0-4.457-2.228a6.739,6.739,0,0,1-.643-3.188v-10.6Z" transform="translate(-124.589 -117.094)" fill="#f77b0c"/><path d="M215.849,126.988a1.424,1.424,0,0,0,1.209-.756,2.33,2.33,0,0,0,.174-1.008,2.14,2.14,0,0,0-.952-1.951,5.083,5.083,0,0,0-2.724-.607,3.45,3.45,0,0,0-2.906,1.112,3.679,3.679,0,0,0-.624,1.829H207.58q.073-2.89,1.868-4.022a7.649,7.649,0,0,1,4.165-1.131,8.472,8.472,0,0,1,4.464,1.048,3.557,3.557,0,0,1,1.7,3.261v8.982a1.148,1.148,0,0,0,.168.655.808.808,0,0,0,.706.247,3.907,3.907,0,0,0,.393-.022q.218-.022.465-.065V136.5a7.294,7.294,0,0,1-.932.218,6.837,6.837,0,0,1-.873.043,2.155,2.155,0,0,1-1.965-.96,3.7,3.7,0,0,1-.451-1.441,6.672,6.672,0,0,1-2.3,1.82,7.121,7.121,0,0,1-3.3.771,4.918,4.918,0,0,1-3.545-1.316,4.369,4.369,0,0,1-1.376-3.293,4.238,4.238,0,0,1,1.354-3.358,6.449,6.449,0,0,1,3.552-1.469Zm-5.517,7.079a3.082,3.082,0,0,0,1.965.653,5.987,5.987,0,0,0,2.679-.639,3.6,3.6,0,0,0,2.183-3.474V128.5a4.473,4.473,0,0,1-1.235.511,10.492,10.492,0,0,1-1.482.292l-1.584.2a6.119,6.119,0,0,0-2.141.6,2.316,2.316,0,0,0-1.216,2.178A2.152,2.152,0,0,0,210.331,134.067Z" transform="translate(-150.414 -116.48)" fill="#f77b0c"/><path d="M250.114,110.03h2.649v4.353h2.489v2.14h-2.489V126.7a1.1,1.1,0,0,0,.553,1.092,2.351,2.351,0,0,0,1.019.16c.126,0,.262,0,.408-.01s.315-.022.509-.049v2.082a5.832,5.832,0,0,1-.939.189,8.915,8.915,0,0,1-1.055.058,2.844,2.844,0,0,1-2.489-.939,4.172,4.172,0,0,1-.655-2.438V116.522H248v-2.14h2.111Z" transform="translate(-175.93 -110.03)" fill="#f77b0c"/><path d="M282.081,121.309a5.909,5.909,0,0,1,2.359,2.016,6.985,6.985,0,0,1,1.042,2.751,18.1,18.1,0,0,1,.232,3.435h-11.34a6.735,6.735,0,0,0,1.112,3.817,3.707,3.707,0,0,0,3.221,1.438,4.139,4.139,0,0,0,3.25-1.36,4.629,4.629,0,0,0,.962-1.828h2.576a5.423,5.423,0,0,1-.677,1.915,6.9,6.9,0,0,1-1.283,1.725,6.044,6.044,0,0,1-2.933,1.572,8.85,8.85,0,0,1-2.124.233,6.506,6.506,0,0,1-4.9-2.118,8.271,8.271,0,0,1-2.011-5.932,8.994,8.994,0,0,1,2.026-6.1,6.663,6.663,0,0,1,5.3-2.344A7.036,7.036,0,0,1,282.081,121.309Zm.939,6.121a6.846,6.846,0,0,0-.736-2.722,3.767,3.767,0,0,0-3.566-1.892,3.937,3.937,0,0,0-3,1.3,4.943,4.943,0,0,0-1.285,3.311Z" transform="translate(-190.508 -116.527)" fill="#f77b0c"/></g></g></svg>