<svg xmlns="http://www.w3.org/2000/svg" width="313.625" height="52.033" viewBox="0 0 313.625 52.033"><g transform="translate(-1137.23 -0.894)"><path d="M1484.7,46.728a7.918,7.918,0,0,1,3.171,2.447,7.831,7.831,0,0,1,1.548,3.5,24.17,24.17,0,0,1,.25,4.02l-.05,17.154h-7.291V56.516a5.689,5.689,0,0,0-.5-2.547,3.55,3.55,0,0,0-3.5-1.9,4.09,4.09,0,0,0-4.07,2.447,7.681,7.681,0,0,0-.574,3.121v16.2h-7.167v-16.2a9.108,9.108,0,0,0-.5-3.521,3.487,3.487,0,0,0-3.521-1.972q-3.047,0-4.095,1.972a7.6,7.6,0,0,0-.575,3.346V73.844h-7.216V46.678h6.917v3.97a11.434,11.434,0,0,1,2.5-3.021,9.88,9.88,0,0,1,10.412-.225,7.991,7.991,0,0,1,2.348,3.271,9.047,9.047,0,0,1,3.47-3.521,10.591,10.591,0,0,1,4.894-1.123A9.477,9.477,0,0,1,1484.7,46.728Z" transform="translate(-145.234 -20.917)" fill="#284f9e"/><path d="M1584.06,48.145q2.672,2.209,2.672,7.328V73.8h-7.291V57.246a7.6,7.6,0,0,0-.57-3.3q-1.042-2.1-3.966-2.1a4.916,4.916,0,0,0-4.932,3.071,10.624,10.624,0,0,0-.694,4.146V73.8h-7.116V46.634h6.891V50.6a12.06,12.06,0,0,1,2.587-3.021,8.958,8.958,0,0,1,5.545-1.648A10.433,10.433,0,0,1,1584.06,48.145Z" transform="translate(-196.926 -20.873)" fill="#284f9e"/><path d="M1633.208,37.622a8.654,8.654,0,0,1,3.121,3.009V27.647h7.216V64.4h-6.916v-3.77a10.041,10.041,0,0,1-3.471,3.52,9.744,9.744,0,0,1-4.844,1.1,10.113,10.113,0,0,1-8.027-3.858,14.815,14.815,0,0,1-3.259-9.9q0-6.967,3.209-10.962a10.437,10.437,0,0,1,8.576-4A8.783,8.783,0,0,1,1633.208,37.622Zm1.748,19.388a9.927,9.927,0,0,0,1.573-5.818q0-4.993-2.522-7.142a5.431,5.431,0,0,0-3.6-1.3,5,5,0,0,0-4.582,2.359,10.934,10.934,0,0,0-1.461,5.855,10.827,10.827,0,0,0,1.486,6.03,5.026,5.026,0,0,0,4.507,2.26A5.255,5.255,0,0,0,1634.956,57.01Z" transform="translate(-222.352 -12.398)" fill="#284f9e"/><path d="M1682.551,63.281a4.737,4.737,0,0,0,.979,2.7q1.329,1.422,4.917,1.423a7.519,7.519,0,0,0,3.349-.625,2.091,2.091,0,0,0,.242-3.7q-1-.624-7.445-2.147-4.639-1.149-6.536-2.871a6.226,6.226,0,0,1-1.9-4.894,8.48,8.48,0,0,1,2.965-6.479q2.965-2.709,8.345-2.71a15.335,15.335,0,0,1,8.319,2.035q3.215,2.035,3.691,7.029h-7.116a4.215,4.215,0,0,0-.776-2.173q-1.178-1.448-4.007-1.449a5.767,5.767,0,0,0-3.318.725,2.082,2.082,0,0,0-.989,1.7,1.856,1.856,0,0,0,1.052,1.772,45.478,45.478,0,0,0,7.429,1.973,13.621,13.621,0,0,1,6.375,3.021,6.857,6.857,0,0,1,2.1,5.118,8.265,8.265,0,0,1-3.015,6.6q-3.015,2.559-9.319,2.559-6.43,0-9.495-2.709a8.8,8.8,0,0,1-3.065-6.9Z" transform="translate(-249.373 -19.967)" fill="#284f9e"/><g transform="translate(1340.022 0.894)"><circle cx="7.061" cy="7.061" r="7.061" transform="translate(5.717)" fill="#f6871f"/><path d="M1516.615,28.945c2.589.827,4.289,1.316,5.948,4.2,1.489,2.588-.957,28.251-.653,29.53.171.719,1.008.788,1.681.267a5.721,5.721,0,0,0,1.3-2.215c1.035-2.374,4.5-12.235,6.452-12.722s6.59,5.123,9.657,10.922c2.237,4.23,4.633,1.982,3.634-.013-1.01-2.016-8.806-24.561-8.056-27.892.621-2.753,3.821-4.585,4.261-5.722.539-1.393-1.047-3.2-3.378-1.126a14.676,14.676,0,0,1-8.491,3.682c-4.413.517-10.787-1.713-11.87-2.009C1515.375,25.376,1514.026,28.118,1516.615,28.945Z" transform="translate(-1515.171 -11.248)" fill="#f6871f"/></g><path d="M1152.727,56.481a2.429,2.429,0,0,0,2.062-1.289,3.962,3.962,0,0,0,.3-1.72,3.651,3.651,0,0,0-1.623-3.328,8.67,8.67,0,0,0-4.647-1.035q-3.495,0-4.957,1.9a6.274,6.274,0,0,0-1.065,3.12h-4.172q.124-4.931,3.187-6.862a13.054,13.054,0,0,1,7.106-1.93,14.446,14.446,0,0,1,7.616,1.788,6.067,6.067,0,0,1,2.9,5.563V68.01a1.957,1.957,0,0,0,.286,1.117,1.379,1.379,0,0,0,1.2.422q.3,0,.671-.038t.794-.111v3.3a12.35,12.35,0,0,1-1.589.373,11.668,11.668,0,0,1-1.49.075,3.676,3.676,0,0,1-3.352-1.639,6.307,6.307,0,0,1-.77-2.458,11.378,11.378,0,0,1-3.924,3.1,12.147,12.147,0,0,1-5.638,1.316,8.39,8.39,0,0,1-6.047-2.244,7.453,7.453,0,0,1-2.347-5.618,7.231,7.231,0,0,1,2.311-5.73,11,11,0,0,1,6.059-2.506Zm-9.413,12.076a5.258,5.258,0,0,0,3.353,1.115,10.2,10.2,0,0,0,4.57-1.091,6.14,6.14,0,0,0,3.725-5.926v-3.6a7.624,7.624,0,0,1-2.107.872,17.765,17.765,0,0,1-2.528.5l-2.7.348a10.437,10.437,0,0,0-3.652,1.016,3.95,3.95,0,0,0-2.074,3.716A3.67,3.67,0,0,0,1143.315,68.557Z" transform="translate(0 -20.595)" fill="#f6871f"/><path d="M1208.267,47.519q2.819,2.186,3.39,7.525h-4.346a8.024,8.024,0,0,0-1.813-4.085q-1.416-1.627-4.544-1.627a6.28,6.28,0,0,0-6.11,4.168,16.544,16.544,0,0,0-1.192,6.672,12.54,12.54,0,0,0,1.689,6.722,6.558,6.558,0,0,0,9.723,1.033,9.3,9.3,0,0,0,2.247-4.638h4.346q-.745,5.29-3.725,7.735a11.622,11.622,0,0,1-7.625,2.447,10.178,10.178,0,0,1-8.32-3.812,14.592,14.592,0,0,1-3.1-9.524q0-7,3.4-10.9a10.993,10.993,0,0,1,8.667-3.9A11.6,11.6,0,0,1,1208.267,47.519Z" transform="translate(-23.938 -20.595)" fill="#f6871f"/><path d="M1238.213,33.578h4.52V41h4.246v3.651h-4.246v17.36a1.878,1.878,0,0,0,.944,1.862,4,4,0,0,0,1.739.273c.215,0,.447-.005.7-.016s.538-.039.869-.083V67.6a9.986,9.986,0,0,1-1.6.322,15.282,15.282,0,0,1-1.8.1q-3.129,0-4.247-1.6a7.118,7.118,0,0,1-1.117-4.16V44.654h-3.6V41h3.6Z" transform="translate(-45.13 -15.147)" fill="#f6871f"/><path d="M1270.377,46.861V64.519a7.612,7.612,0,0,0,.629,3.327,4.366,4.366,0,0,0,4.33,2.385,6.121,6.121,0,0,0,6.191-4.172,16.972,16.972,0,0,0,.895-6.135V46.861h4.47v26.6h-4.222l.05-3.924a8.987,8.987,0,0,1-2.121,2.557,9.214,9.214,0,0,1-6.092,2.087q-5.581,0-7.6-3.8a11.494,11.494,0,0,1-1.1-5.439V46.861Z" transform="translate(-59.587 -21.302)" fill="#f6871f"/><path d="M1331.893,56.481a2.429,2.429,0,0,0,2.062-1.289,3.96,3.96,0,0,0,.3-1.72,3.651,3.651,0,0,0-1.623-3.328,8.67,8.67,0,0,0-4.647-1.035q-3.495,0-4.957,1.9a6.272,6.272,0,0,0-1.065,3.12h-4.172q.124-4.931,3.187-6.862a13.052,13.052,0,0,1,7.106-1.93,14.446,14.446,0,0,1,7.616,1.788,6.067,6.067,0,0,1,2.9,5.563V68.01a1.958,1.958,0,0,0,.286,1.117,1.379,1.379,0,0,0,1.2.422q.3,0,.671-.038t.794-.111v3.3a12.351,12.351,0,0,1-1.589.373,11.665,11.665,0,0,1-1.49.075,3.676,3.676,0,0,1-3.352-1.639,6.311,6.311,0,0,1-.77-2.458,11.377,11.377,0,0,1-3.924,3.1,12.147,12.147,0,0,1-5.638,1.316,8.39,8.39,0,0,1-6.047-2.244,7.453,7.453,0,0,1-2.347-5.618,7.231,7.231,0,0,1,2.311-5.73,11,11,0,0,1,6.059-2.506Zm-9.412,12.076a5.258,5.258,0,0,0,3.353,1.115,10.2,10.2,0,0,0,4.57-1.091,6.14,6.14,0,0,0,3.725-5.926v-3.6a7.625,7.625,0,0,1-2.107.872,17.767,17.767,0,0,1-2.528.5l-2.7.348a10.436,10.436,0,0,0-3.652,1.016,3.95,3.95,0,0,0-2.074,3.716A3.67,3.67,0,0,0,1322.481,68.557Z" transform="translate(-83.031 -20.595)" fill="#f6871f"/><path d="M1369.984,33.578h4.52V41h4.246v3.651H1374.5v17.36a1.878,1.878,0,0,0,.944,1.862,4,4,0,0,0,1.738.273c.215,0,.447-.005.7-.016s.538-.039.869-.083V67.6a10,10,0,0,1-1.6.322,15.28,15.28,0,0,1-1.8.1q-3.129,0-4.248-1.6a7.121,7.121,0,0,1-1.117-4.16V44.654h-3.6V41h3.6Z" transform="translate(-106.196 -15.147)" fill="#f6871f"/><path d="M1412.883,46.756a10.076,10.076,0,0,1,4.024,3.44,11.911,11.911,0,0,1,1.777,4.693,30.937,30.937,0,0,1,.4,5.862h-19.347a11.5,11.5,0,0,0,1.9,6.512,6.326,6.326,0,0,0,5.5,2.453,7.062,7.062,0,0,0,5.544-2.32,7.906,7.906,0,0,0,1.641-3.119h4.4a9.273,9.273,0,0,1-1.155,3.266,11.776,11.776,0,0,1-2.189,2.943,10.313,10.313,0,0,1-5,2.682,15.083,15.083,0,0,1-3.623.4,11.1,11.1,0,0,1-8.366-3.614q-3.43-3.613-3.43-10.12a15.344,15.344,0,0,1,3.456-10.406,11.367,11.367,0,0,1,9.033-4A12,12,0,0,1,1412.883,46.756Zm1.6,10.443a11.671,11.671,0,0,0-1.255-4.644q-1.822-3.228-6.083-3.228a6.715,6.715,0,0,0-5.122,2.222,8.434,8.434,0,0,0-2.192,5.65Z" transform="translate(-119.43 -20.638)" fill="#f6871f"/></g></svg>