<svg xmlns="http://www.w3.org/2000/svg" width="33.909" height="27.801" viewBox="0 0 33.909 27.801"><g transform="translate(82.713 742.448)"><g transform="translate(-82.713 -742.448)"><path d="M25.463-714.647a4.882,4.882,0,0,1-.463-.365Q17.2-722.8,9.408-730.59c-.5-.5-.5-.78,0-1.278l10.206-10.2c.511-.511.785-.509,1.3.008l5.618,5.615a2.35,2.35,0,0,1,.226.241.653.653,0,0,1-.06.873.663.663,0,0,1-.875.036,2.892,2.892,0,0,1-.24-.228q-2.1-2.093-4.189-4.189c-.084-.084-.154-.184-.23-.277l-.085.035c-.008.1-.022.2-.022.3q0,5.542,0,11.083a1.749,1.749,0,0,0,1.918,1.907q5.528,0,11.056,0c.105,0,.21-.01.374-.019-.12-.13-.2-.218-.279-.3l-4.376-4.376a2.1,2.1,0,0,1-.265-.294.634.634,0,0,1,.082-.818.666.666,0,0,1,.821-.089,1.644,1.644,0,0,1,.247.219q2.939,2.935,5.876,5.871c.452.452.455.762.008,1.208q-5.149,5.148-10.3,10.293c-.114.114-.243.214-.365.32ZM11.477-730.555l13.477,13.468v-8.252h-.375c-.662,0-1.325.017-1.986-.018a2.99,2.99,0,0,1-2.755-2.325,6.635,6.635,0,0,1-.1-1.248c-.015-.536,0-1.073,0-1.625Zm-.082-1.36h8.313v-8.308Zm14.939,6.6v8.215l8.221-8.215Z" transform="translate(-2.949 742.448)" fill="#0f2154"/><path d="M-82.713-534.467a.89.89,0,0,1,.9-.47c1.168.021,2.337.006,3.505.008.485,0,.789.249.8.644s-.3.677-.8.678c-1.168,0-2.337-.013-3.505.008a.893.893,0,0,1-.9-.47Z" transform="translate(82.713 548.702)" fill="#0f2154"/><path d="M-82.713-639.234a.876.876,0,0,1,.9-.47c.593.026,1.188,0,1.782.008a.677.677,0,0,1,.763.677.677.677,0,0,1-.763.644c-.594,0-1.189-.018-1.782.008a.877.877,0,0,1-.9-.47Z" transform="translate(82.713 646.52)" fill="#0f2154"/><path d="M-50.388-416.13q2.281,0,4.563,0a.686.686,0,0,1,.747.517.665.665,0,0,1-.557.8,2.251,2.251,0,0,1-.33.01h-8.861c-.077,0-.155,0-.231,0a.668.668,0,0,1-.662-.648.654.654,0,0,1,.67-.67c.716-.011,1.433,0,2.149,0Z" transform="translate(57.511 437.777)" fill="#0f2154"/><path d="M-12.047-478.639c-.561,0-1.123,0-1.684,0-.505,0-.818-.251-.824-.654s.311-.668.808-.669q1.717,0,3.434,0c.493,0,.778.241.782.652s-.284.668-.8.67C-10.9-478.637-11.475-478.639-12.047-478.639Z" transform="translate(19.076 497.374)" fill="#0f2154"/><path d="M-16.095-638.292c-.4,0-.793.006-1.189,0a.649.649,0,0,1-.7-.664.647.647,0,0,1,.711-.656q1.189-.01,2.377,0a.657.657,0,0,1,.722.647.66.66,0,0,1-.73.674C-15.3-638.288-15.7-638.292-16.095-638.292Z" transform="translate(22.28 646.439)" fill="#0f2154"/><path d="M6.751-534.125a.653.653,0,0,1-.659.643.676.676,0,0,1-.665-.679A.674.674,0,0,1,6.1-534.8.652.652,0,0,1,6.751-534.125Z" transform="translate(0.42 548.576)" fill="#0f2154"/><path d="M289.153-621.026a.644.644,0,0,1-.649-.644.663.663,0,0,1,.66-.674.682.682,0,0,1,.657.652A.66.66,0,0,1,289.153-621.026Z" transform="translate(-263.881 630.31)" fill="#0f2154"/></g></g></svg>