<svg xmlns="http://www.w3.org/2000/svg" width="24.12" height="19.776" viewBox="0 0 24.12 19.776"><g transform="translate(0 0)"><path d="M20.721-722.672a3.47,3.47,0,0,1-.329-.26Q14.844-728.47,9.3-734.013c-.355-.354-.354-.555,0-.909l7.26-7.255c.364-.363.558-.362.926.006l4,3.994a1.667,1.667,0,0,1,.161.171.464.464,0,0,1-.043.621.471.471,0,0,1-.623.025,2.028,2.028,0,0,1-.17-.162q-1.49-1.489-2.979-2.979c-.06-.06-.109-.131-.164-.2l-.06.025c-.005.071-.016.143-.016.214q0,3.942,0,7.883a1.244,1.244,0,0,0,1.365,1.356q3.932,0,7.865,0c.075,0,.15-.007.266-.013-.086-.092-.14-.155-.2-.214l-3.113-3.113a1.493,1.493,0,0,1-.189-.209.451.451,0,0,1,.058-.582.474.474,0,0,1,.584-.063,1.175,1.175,0,0,1,.176.156l4.179,4.177c.322.322.324.542.006.86q-3.662,3.662-7.326,7.321c-.081.081-.173.152-.259.228Zm-9.949-11.316,9.586,9.58v-5.87h-.267c-.471,0-.943.012-1.412-.013a2.127,2.127,0,0,1-1.959-1.654,4.72,4.72,0,0,1-.07-.887c-.011-.381,0-.764,0-1.156Zm-.058-.967h5.913v-5.91Zm10.626,4.694v5.844l5.847-5.844Z" transform="translate(-4.706 742.448)" fill="#fff"/><path d="M-82.713-534.6a.633.633,0,0,1,.64-.335c.831.015,1.662,0,2.493.006.345,0,.561.177.569.458s-.215.482-.569.482c-.831,0-1.663-.009-2.493.006a.635.635,0,0,1-.64-.335Z" transform="translate(82.713 544.728)" fill="#fff"/><path d="M-82.713-639.37a.623.623,0,0,1,.638-.334c.422.019.845,0,1.267.005a.482.482,0,0,1,.542.482.482.482,0,0,1-.542.458c-.422,0-.846-.013-1.267.005a.623.623,0,0,1-.638-.334Z" transform="translate(82.713 644.553)" fill="#fff"/><path d="M-51.927-416.13q1.623,0,3.246,0a.488.488,0,0,1,.531.368.473.473,0,0,1-.4.566,1.6,1.6,0,0,1-.235.007h-6.3c-.055,0-.11,0-.165,0a.475.475,0,0,1-.471-.461.466.466,0,0,1,.477-.476c.509-.008,1.019,0,1.529,0Z" transform="translate(56.994 431.529)" fill="#fff"/><path d="M-12.771-479.021c-.4,0-.8,0-1.2,0-.36,0-.582-.178-.586-.465s.221-.475.575-.476q1.221,0,2.442,0c.351,0,.553.172.556.464s-.2.475-.568.477C-11.957-479.02-12.364-479.021-12.771-479.021Z" transform="translate(17.771 492.348)" fill="#fff"/><path d="M-16.641-638.675c-.282,0-.564,0-.845,0a.462.462,0,0,1-.5-.472.461.461,0,0,1,.506-.467q.845-.007,1.691,0a.467.467,0,0,1,.514.46.47.47,0,0,1-.519.479C-16.077-638.672-16.359-638.675-16.641-638.675Z" transform="translate(21.041 644.47)" fill="#fff"/><path d="M6.369-534.321a.465.465,0,0,1-.469.457.481.481,0,0,1-.473-.483A.48.48,0,0,1,5.9-534.8.464.464,0,0,1,6.369-534.321Z" transform="translate(-1.268 544.6)" fill="#fff"/><path d="M288.966-621.406a.458.458,0,0,1-.462-.458.471.471,0,0,1,.469-.479.485.485,0,0,1,.467.464A.469.469,0,0,1,288.966-621.406Z" transform="translate(-270.989 628.01)" fill="#fff"/></g></svg>