<svg xmlns="http://www.w3.org/2000/svg" width="20.582" height="20.579" viewBox="0 0 20.582 20.579"><g transform="translate(0 0)"><path d="M1179.378-267.888c-.256-.047-.514-.085-.767-.143a7.835,7.835,0,0,1-2.061-.926,22.942,22.942,0,0,1-9.426-10.005,4.712,4.712,0,0,1,.834-5.364c.29-.306.59-.6.893-.9a1.138,1.138,0,0,1,1.654.005q1.6,1.585,3.182,3.183a1.136,1.136,0,0,1,0,1.655c-.411.422-.833.835-1.249,1.252a.829.829,0,0,0-.132,1.23c.182.273.375.538.565.806a.415.415,0,0,1-.041.621.415.415,0,0,1-.6-.144c-.227-.315-.454-.63-.666-.956a1.584,1.584,0,0,1,.213-2.025c.422-.431.852-.853,1.278-1.28.252-.253.252-.409,0-.663q-1.519-1.521-3.04-3.041c-.255-.254-.411-.257-.661,0a11.785,11.785,0,0,0-1.063,1.121,3.8,3.8,0,0,0-.4,4.211,22.339,22.339,0,0,0,5.939,7.476,21.076,21.076,0,0,0,4.242,2.7,3.94,3.94,0,0,0,4.327-.637c.337-.305.653-.636.972-.96a.35.35,0,0,0,0-.548q-1.574-1.581-3.154-3.155a.35.35,0,0,0-.561.008c-.429.424-.852.853-1.28,1.278a1.586,1.586,0,0,1-2.134.214c-.459-.312-.9-.651-1.349-.978a.359.359,0,0,1-.163-.436.534.534,0,0,1,.294-.284.537.537,0,0,1,.381.107c.43.295.843.616,1.271.914a.792.792,0,0,0,1.136-.11c.424-.419.842-.844,1.265-1.264a1.147,1.147,0,0,1,1.726,0q1.559,1.553,3.112,3.112a1.152,1.152,0,0,1,0,1.729c-.325.329-.646.663-.989.971a4.664,4.664,0,0,1-2.688,1.192,1.014,1.014,0,0,0-.136.033Z" transform="translate(-1166.633 288.467)" fill="#fff"/><path d="M1457.014-348.361a1.224,1.224,0,0,1-.208.205c-.272.164-.564-.036-.6-.374a11.994,11.994,0,0,0-.243-1.884,7.88,7.88,0,0,0-6.036-5.936,11.335,11.335,0,0,0-1.708-.206c-.289-.028-.471-.169-.467-.413s.189-.4.48-.394a8.888,8.888,0,0,1,8.612,7.133c.072.379.115.764.171,1.146Z" transform="translate(-1436.433 357.364)" fill="#fff"/><path d="M1448.325-297.353a6.452,6.452,0,0,1,6.209,5.568c.037.265.055.533.065.8a.408.408,0,0,1-.4.479c-.244,0-.4-.174-.406-.469a5.634,5.634,0,0,0-4.235-5.386,6.594,6.594,0,0,0-1.308-.178c-.366-.017-.506-.234-.5-.426.01-.249.2-.392.509-.387Z" transform="translate(-1436.437 299.77)" fill="#fff"/><path d="M1448.3-237.563a4.059,4.059,0,0,1,3.9,3.919.944.944,0,0,1,0,.14.4.4,0,0,1-.414.38.4.4,0,0,1-.385-.388,6.161,6.161,0,0,0-.139-.909,3.209,3.209,0,0,0-2.988-2.328,1.15,1.15,0,0,1-.18-.013.376.376,0,0,1-.316-.343.378.378,0,0,1,.246-.414A1.651,1.651,0,0,1,1448.3-237.563Z" transform="translate(-1436.46 242.387)" fill="#fff"/><path d="M1449.761-175.561a.4.4,0,0,1-.354.472.4.4,0,0,1-.441-.389.809.809,0,0,0-.821-.816.4.4,0,0,1-.385-.426.4.4,0,0,1,.46-.369A1.6,1.6,0,0,1,1449.761-175.561Z" transform="translate(-1436.44 184.349)" fill="#fff"/><path d="M1334.731-42.706a.4.4,0,0,1-.392.4.406.406,0,0,1-.4-.412.4.4,0,0,1,.4-.386A.388.388,0,0,1,1334.731-42.706Z" transform="translate(-1327.2 55.756)" fill="#fff"/></g></svg>