<svg xmlns="http://www.w3.org/2000/svg" width="134.069" height="100.395" viewBox="0 0 134.069 100.395"><g transform="translate(0.933 2.214)"><path d="M51.171,0s13.765,25.046,2.66,45.607S27,70.913,17.976,60.609s3.54-24.1,16.9-11.049S46.917,119.943,0,119.7" transform="matrix(0.259, -0.966, 0.966, 0.259, 0, 56.179)" fill="none" stroke="#f77b0c" stroke-width="4"/><path d="M18.446,8.683V8.467a.877.877,0,0,0-.565-.576Q10.436,4.46,2.993,1.024C2.237.676,1.476.341.717,0H.609C-.055.135-.12.757.224,1.21,2.031,3.583,3.812,5.976,5.6,8.362l.158.213c-.044.061-.078.11-.114.158L1.28,14.55c-.378.5-.761,1-1.133,1.513A.649.649,0,0,0,.458,17.1a.786.786,0,0,0,.59-.073Q9.473,13.137,17.9,9.253A.866.866,0,0,0,18.446,8.683Z" transform="translate(125.906 80.284) rotate(104)" fill="#f77b0c"/></g></svg>