<svg xmlns="http://www.w3.org/2000/svg" width="21.77" height="21.77" viewBox="0 0 21.77 21.77">
  <g id="Group_218" data-name="Group 218" transform="translate(4078.679 650.575)">
    <path id="Path_834" data-name="Path 834" d="M-4067.236-628.806h-1.106c-.294-.034-.59-.061-.883-.1a10.728,10.728,0,0,1-6.169-3.016,10.65,10.65,0,0,1-3.155-6.188c-.049-.328-.086-.657-.129-.986v-1.191c.015-.083.035-.164.045-.248.05-.386.075-.776.15-1.157a10.638,10.638,0,0,1,4.118-6.654,10.58,10.58,0,0,1,8.585-2.031,10.411,10.411,0,0,1,6.307,3.689,10.587,10.587,0,0,1,2.37,9,10.516,10.516,0,0,1-3.7,6.327,10.561,10.561,0,0,1-5.409,2.432C-4066.549-628.886-4066.893-628.849-4067.236-628.806Zm8.091-10.885a8.627,8.627,0,0,0-8.619-8.645,8.627,8.627,0,0,0-8.669,8.639,8.629,8.629,0,0,0,8.641,8.646A8.628,8.628,0,0,0-4059.146-639.69Z" transform="translate(0 0)" fill="#fff"/>
    <path id="Path_835" data-name="Path 835" d="M-3949.474-515.624a5.6,5.6,0,0,1-5.557-4.767,5.59,5.59,0,0,1,4.607-6.36,5.46,5.46,0,0,1,5.387,2.079c.265.322.212.536-.156.721-.392.2-.783.395-1.177.588-.268.132-.358.11-.572-.125a3.366,3.366,0,0,0-2.475-1.138,3.435,3.435,0,0,0-3.3,2.413,3.377,3.377,0,0,0,2.749,4.339,3.3,3.3,0,0,0,3.172-1.283c.268-.332.342-.355.731-.161.367.183.735.365,1.1.552.308.158.365.353.172.636a5.538,5.538,0,0,1-3.987,2.47c-.092.012-.182.031-.273.034C-3949.191-515.619-3949.332-515.624-3949.474-515.624Z" transform="translate(-118.318 -118.464)" fill="#fff"/>
  </g>
</svg>
