<svg id="Group_208" data-name="Group 208" xmlns="http://www.w3.org/2000/svg" width="63.443" height="63.443" viewBox="0 0 63.443 63.443">
  <ellipse id="Ellipse_20" data-name="Ellipse 20" cx="31.722" cy="31.721" rx="31.722" ry="31.721" fill="#0f2154"/>
  <path id="Path_825" data-name="Path 825" d="M566.854,242.326a14.339,14.339,0,0,1-3.5,1c.562-.1,1.389-1.113,1.721-1.525a6.434,6.434,0,0,0,1.161-2.117c.03-.061.052-.137-.006-.182a.2.2,0,0,0-.187.015,17.767,17.767,0,0,1-4.148,1.586.28.28,0,0,1-.286-.074,3.27,3.27,0,0,0-.362-.371,7.348,7.348,0,0,0-2.009-1.232,7,7,0,0,0-3.083-.5,7.391,7.391,0,0,0-2.925.827,7.556,7.556,0,0,0-2.358,1.927,7.241,7.241,0,0,0-1.408,2.823,7.607,7.607,0,0,0-.074,2.979c.022.165.006.189-.143.165-5.7-.848-10.42-2.885-14.256-7.255-.165-.189-.256-.189-.393.015-1.677,2.514-.863,6.554,1.232,8.539.28.265.566.529.876.772a7.288,7.288,0,0,1-2.751-.772c-.167-.1-.25-.043-.265.145a4.4,4.4,0,0,0,.046.816,7.309,7.309,0,0,0,4.5,5.827,4.334,4.334,0,0,0,.916.278,8.122,8.122,0,0,1-2.7.085c-.2-.037-.271.061-.2.249,1.189,3.235,3.751,4.2,5.669,4.747.256.043.514.043.772.1-.015.024-.033.024-.046.046-.638.97-2.844,1.692-3.873,2.052a13.883,13.883,0,0,1-5.877.753c-.317-.048-.384-.043-.469,0s-.011.128.091.21c.4.265.807.5,1.224.727a19.448,19.448,0,0,0,3.929,1.571c7.064,1.95,15.018.519,20.322-4.751,4.163-4.137,5.623-9.843,5.623-15.556,0-.223.265-.347.421-.466a13.8,13.8,0,0,0,2.766-2.875.882.882,0,0,0,.182-.551v-.03C566.995,242.235,566.993,242.261,566.854,242.326Z" transform="translate(-517.605 -221.474)" fill="#fff"/>
</svg>
