<svg xmlns="http://www.w3.org/2000/svg" width="358.228" height="59.433" viewBox="0 0 358.228 59.433"><g transform="translate(-1137.23 -0.894)"><path d="M1489.55,46.827a9.044,9.044,0,0,1,3.622,2.795,8.943,8.943,0,0,1,1.768,3.993,27.606,27.606,0,0,1,.286,4.592l-.057,19.593h-8.328V58.007a6.5,6.5,0,0,0-.57-2.909,4.055,4.055,0,0,0-3.993-2.168,4.672,4.672,0,0,0-4.649,2.8,8.772,8.772,0,0,0-.656,3.565V77.8h-8.186V59.29a10.4,10.4,0,0,0-.57-4.022q-1.028-2.252-4.022-2.253-3.481,0-4.677,2.253a8.677,8.677,0,0,0-.656,3.822V77.8h-8.242V46.77h7.9V51.3a13.061,13.061,0,0,1,2.852-3.451,11.286,11.286,0,0,1,11.893-.257,9.129,9.129,0,0,1,2.681,3.736,10.334,10.334,0,0,1,3.964-4.022,12.1,12.1,0,0,1,5.59-1.283A10.825,10.825,0,0,1,1489.55,46.827Z" transform="translate(-121.32 -17.473)" fill="#284f9e"/><path d="M1587.174,48.459q3.052,2.523,3.052,8.37V77.763H1581.9V58.855a8.686,8.686,0,0,0-.651-3.765q-1.191-2.4-4.531-2.4a5.616,5.616,0,0,0-5.634,3.508,12.135,12.135,0,0,0-.793,4.735V77.763h-8.128V46.734h7.871v4.535a13.777,13.777,0,0,1,2.954-3.451,10.232,10.232,0,0,1,6.333-1.883A11.916,11.916,0,0,1,1587.174,48.459Z" transform="translate(-164.5 -17.436)" fill="#284f9e"/><path d="M1635.509,39.04a9.884,9.884,0,0,1,3.564,3.436V27.647h8.243V69.629h-7.9V65.322a11.468,11.468,0,0,1-3.965,4.021,11.129,11.129,0,0,1-5.533,1.255,11.552,11.552,0,0,1-9.169-4.407,16.921,16.921,0,0,1-3.722-11.308q0-7.958,3.665-12.521a11.922,11.922,0,0,1,9.8-4.564A10.032,10.032,0,0,1,1635.509,39.04Zm2,22.146a11.34,11.34,0,0,0,1.8-6.645q0-5.7-2.88-8.157a6.2,6.2,0,0,0-4.107-1.482,5.708,5.708,0,0,0-5.233,2.695,12.489,12.489,0,0,0-1.668,6.688,12.366,12.366,0,0,0,1.7,6.888,5.74,5.74,0,0,0,5.147,2.581A6,6,0,0,0,1637.505,61.186Z" transform="translate(-185.739 -10.357)" fill="#284f9e"/><path d="M1683.577,66.026a5.41,5.41,0,0,0,1.118,3.081q1.518,1.624,5.616,1.625a8.589,8.589,0,0,0,3.825-.713,2.388,2.388,0,0,0,.276-4.221q-1.143-.712-8.5-2.453-5.3-1.312-7.466-3.28a7.111,7.111,0,0,1-2.167-5.59,9.686,9.686,0,0,1,3.387-7.4q3.387-3.094,9.532-3.1a17.516,17.516,0,0,1,9.5,2.325q3.672,2.325,4.216,8.029h-8.128a4.815,4.815,0,0,0-.886-2.482q-1.346-1.654-4.576-1.655a6.587,6.587,0,0,0-3.79.828,2.379,2.379,0,0,0-1.129,1.939,2.12,2.12,0,0,0,1.2,2.024q1.2.656,8.486,2.254a15.559,15.559,0,0,1,7.282,3.451,7.832,7.832,0,0,1,2.4,5.846,9.441,9.441,0,0,1-3.443,7.544q-3.443,2.923-10.645,2.923-7.345,0-10.845-3.094a10.056,10.056,0,0,1-3.5-7.886Z" transform="translate(-208.311 -16.679)" fill="#284f9e"/><g transform="translate(1368.862 0.894)"><circle cx="8.065" cy="8.065" r="8.065" transform="translate(6.53)" fill="#f6871f"/><path d="M1516.82,29.757c2.957.944,4.9,1.5,6.794,4.8,1.7,2.957-1.093,32.269-.746,33.729.2.821,1.152.9,1.919.305a6.534,6.534,0,0,0,1.487-2.53c1.182-2.712,5.145-13.975,7.369-14.531s7.527,5.851,11.03,12.476c2.555,4.832,5.292,2.264,4.151-.015-1.153-2.3-10.059-28.054-9.2-31.858.709-3.145,4.364-5.237,4.867-6.536.616-1.591-1.2-3.65-3.859-1.286a16.764,16.764,0,0,1-9.7,4.206c-5.04.591-12.321-1.956-13.558-2.295C1515.4,25.68,1513.864,28.813,1516.82,29.757Z" transform="translate(-1515.17 -9.543)" fill="#f6871f"/></g><path d="M1154.931,58.067a2.775,2.775,0,0,0,2.355-1.473,4.524,4.524,0,0,0,.339-1.965,4.17,4.17,0,0,0-1.854-3.8,9.9,9.9,0,0,0-5.307-1.182q-3.992,0-5.662,2.167a7.166,7.166,0,0,0-1.217,3.564h-4.766q.142-5.633,3.641-7.838a14.91,14.91,0,0,1,8.117-2.2,16.5,16.5,0,0,1,8.7,2.043,6.93,6.93,0,0,1,3.315,6.354v17.5a2.236,2.236,0,0,0,.326,1.276,1.575,1.575,0,0,0,1.376.482q.34,0,.766-.043t.907-.127v3.772a14.107,14.107,0,0,1-1.815.426,13.329,13.329,0,0,1-1.7.085,4.2,4.2,0,0,1-3.829-1.872,7.2,7.2,0,0,1-.88-2.808,13,13,0,0,1-4.482,3.545,13.874,13.874,0,0,1-6.439,1.5,9.583,9.583,0,0,1-6.907-2.564,8.514,8.514,0,0,1-2.681-6.417,8.259,8.259,0,0,1,2.639-6.545,12.562,12.562,0,0,1,6.921-2.862ZM1144.18,71.86a6.005,6.005,0,0,0,3.829,1.274,11.656,11.656,0,0,0,5.22-1.246,7.013,7.013,0,0,0,4.255-6.769V61.012a8.71,8.71,0,0,1-2.407,1,20.292,20.292,0,0,1-2.887.568l-3.086.4a11.92,11.92,0,0,0-4.172,1.161,4.512,4.512,0,0,0-2.369,4.245A4.191,4.191,0,0,0,1144.18,71.86Z" transform="translate(0 -17.204)" fill="#f6871f"/><path d="M1211.023,47.83q3.22,2.5,3.872,8.6h-4.964a9.165,9.165,0,0,0-2.071-4.666q-1.617-1.858-5.19-1.858-4.88,0-6.979,4.76a18.9,18.9,0,0,0-1.361,7.621,14.323,14.323,0,0,0,1.929,7.678,7.491,7.491,0,0,0,11.106,1.18,10.625,10.625,0,0,0,2.567-5.3h4.964q-.851,6.042-4.255,8.835a13.275,13.275,0,0,1-8.709,2.795,11.626,11.626,0,0,1-9.5-4.355,16.667,16.667,0,0,1-3.545-10.879q0-8,3.887-12.453a12.556,12.556,0,0,1,9.9-4.453A13.251,13.251,0,0,1,1211.023,47.83Z" transform="translate(-19.996 -17.204)" fill="#f6871f"/><path d="M1238.725,33.578h5.163V42.06h4.85v4.17h-4.85V66.058a2.145,2.145,0,0,0,1.078,2.127,4.574,4.574,0,0,0,1.986.312c.245,0,.51-.006.794-.018s.614-.045.992-.1v4.057a11.411,11.411,0,0,1-1.829.368,17.455,17.455,0,0,1-2.056.113q-3.574,0-4.851-1.829a8.13,8.13,0,0,1-1.276-4.752V46.23h-4.113V42.06h4.113Z" transform="translate(-37.699 -12.653)" fill="#f6871f"/><path d="M1271.027,46.861V67.03a8.694,8.694,0,0,0,.719,3.8q1.326,2.723,4.946,2.724a6.991,6.991,0,0,0,7.072-4.766,19.384,19.384,0,0,0,1.022-7.007V46.861h5.106V77.242h-4.822l.057-4.482a10.267,10.267,0,0,1-2.423,2.921,10.525,10.525,0,0,1-6.958,2.383q-6.374,0-8.684-4.34a13.128,13.128,0,0,1-1.252-6.212V46.861Z" transform="translate(-49.775 -17.795)" fill="#f6871f"/><path d="M1334.1,58.067a2.775,2.775,0,0,0,2.355-1.473,4.521,4.521,0,0,0,.34-1.965,4.17,4.17,0,0,0-1.854-3.8,9.9,9.9,0,0,0-5.308-1.182q-3.992,0-5.662,2.167a7.164,7.164,0,0,0-1.217,3.564h-4.766q.141-5.633,3.641-7.838a14.908,14.908,0,0,1,8.117-2.2,16.5,16.5,0,0,1,8.7,2.043,6.93,6.93,0,0,1,3.315,6.354v17.5a2.237,2.237,0,0,0,.326,1.276,1.575,1.575,0,0,0,1.376.482q.34,0,.766-.043t.907-.127v3.772a14.108,14.108,0,0,1-1.815.426,13.325,13.325,0,0,1-1.7.085,4.2,4.2,0,0,1-3.829-1.872,7.208,7.208,0,0,1-.88-2.808,13,13,0,0,1-4.482,3.545,13.874,13.874,0,0,1-6.439,1.5,9.583,9.583,0,0,1-6.907-2.564,8.514,8.514,0,0,1-2.681-6.417,8.259,8.259,0,0,1,2.639-6.545,12.562,12.562,0,0,1,6.921-2.862ZM1323.346,71.86a6.005,6.005,0,0,0,3.829,1.274,11.656,11.656,0,0,0,5.22-1.246,7.013,7.013,0,0,0,4.255-6.769V61.012a8.709,8.709,0,0,1-2.407,1,20.294,20.294,0,0,1-2.887.568l-3.087.4a11.92,11.92,0,0,0-4.172,1.161,4.512,4.512,0,0,0-2.369,4.245A4.191,4.191,0,0,0,1323.346,71.86Z" transform="translate(-69.359 -17.204)" fill="#f6871f"/><path d="M1370.5,33.578h5.163V42.06h4.85v4.17h-4.85V66.058a2.145,2.145,0,0,0,1.078,2.127,4.573,4.573,0,0,0,1.986.312c.245,0,.51-.006.794-.018s.614-.045.992-.1v4.057a11.419,11.419,0,0,1-1.829.368,17.454,17.454,0,0,1-2.056.113q-3.574,0-4.852-1.829a8.133,8.133,0,0,1-1.276-4.752V46.23h-4.113V42.06h4.113Z" transform="translate(-88.71 -12.653)" fill="#f6871f"/><path d="M1415.435,46.944a11.508,11.508,0,0,1,4.6,3.929,13.6,13.6,0,0,1,2.03,5.361,35.326,35.326,0,0,1,.452,6.7h-22.1a13.129,13.129,0,0,0,2.167,7.438q2.026,2.8,6.277,2.8a8.066,8.066,0,0,0,6.332-2.65,9.029,9.029,0,0,0,1.875-3.562h5.021a10.591,10.591,0,0,1-1.319,3.73,13.452,13.452,0,0,1-2.5,3.362,11.78,11.78,0,0,1-5.715,3.063,17.228,17.228,0,0,1-4.139.454,12.678,12.678,0,0,1-9.556-4.128q-3.918-4.127-3.918-11.559,0-7.319,3.948-11.886a12.983,12.983,0,0,1,10.317-4.567A13.707,13.707,0,0,1,1415.435,46.944Zm1.829,11.928a13.333,13.333,0,0,0-1.434-5.3q-2.081-3.687-6.948-3.687a7.67,7.67,0,0,0-5.851,2.539,9.633,9.633,0,0,0-2.5,6.453Z" transform="translate(-99.765 -17.24)" fill="#f6871f"/></g></svg>